<?xml version="1.0" standalone="no"?><!DOCTYPE svg PUBLIC "-//W3C//DTD SVG 1.1//EN" "http://www.w3.org/Graphics/SVG/1.1/DTD/svg11.dtd"><svg t="1499050405720" class="icon" style="" viewBox="0 0 1024 1024" version="1.1" xmlns="http://www.w3.org/2000/svg" p-id="1966" xmlns:xlink="http://www.w3.org/1999/xlink" width="200" height="200"><defs><style type="text/css"></style></defs><path d="M682.666667 256V85.333333H85.333333v768h170.666667v85.333334H85.333333c-51.2 0-85.333333-34.133333-85.333333-85.333334V85.333333c0-51.2 34.133333-85.333333 85.333333-85.333333h597.333334c51.2 0 85.333333 34.133333 85.333333 85.333333v170.666667H682.666667z" fill="#2D90E6" p-id="1967"></path><path d="M170.666667 170.666667h426.666666v85.333333H170.666667zM170.666667 341.333333h170.666666v85.333334H170.666667zM170.666667 682.666667h85.333333v85.333333H170.666667zM170.666667 512h85.333333v85.333333H170.666667zM682.666667 341.333333C494.933333 341.333333 341.333333 494.933333 341.333333 682.666667s153.6 341.333333 341.333334 341.333333 341.333333-153.6 341.333333-341.333333-153.6-341.333333-341.333333-341.333334z m0 597.333334c-145.066667 0-256-119.466667-256-256 0-145.066667 119.466667-256 256-256s256 119.466667 256 256-110.933333 256-256 256z" fill="#2D90E6" p-id="1968"></path><path d="M554.666667 640L512 682.666667l128 128L853.333333 597.333333l-42.666666-42.666666-170.666667 170.666666z" fill="#2D90E6" p-id="1969"></path></svg>