<?xml version="1.0" standalone="no"?><!DOCTYPE svg PUBLIC "-//W3C//DTD SVG 1.1//EN" "http://www.w3.org/Graphics/SVG/1.1/DTD/svg11.dtd"><svg t="1500518893443" class="icon" style="" viewBox="0 0 1024 1024" version="1.1" xmlns="http://www.w3.org/2000/svg" p-id="2103" xmlns:xlink="http://www.w3.org/1999/xlink" width="200" height="200"><defs><style type="text/css"></style></defs><path d="M512 512m-512 0a512 512 0 1 0 1024 0 512 512 0 1 0-1024 0Z" fill="#2D90E6" p-id="2104"></path><path d="M482.742857 768c7.314286 7.314286 21.942857 14.628571 29.257143 14.628571s21.942857-7.314286 29.257143-14.628571c14.628571-14.628571 14.628571-36.571429 0-58.514286-14.628571-14.628571-43.885714-14.628571-58.514286 0-14.628571 14.628571-14.628571 43.885714 0 58.514286zM512 636.342857c-21.942857 0-36.571429-14.628571-36.571429-36.571428v-292.571429c0-21.942857 14.628571-36.571429 36.571429-36.571429s36.571429 14.628571 36.571429 36.571429v292.571429c0 21.942857-14.628571 36.571429-36.571429 36.571428z" fill="#FFFFFF" p-id="2105"></path></svg>