<?xml version="1.0" standalone="no"?><!DOCTYPE svg PUBLIC "-//W3C//DTD SVG 1.1//EN" "http://www.w3.org/Graphics/SVG/1.1/DTD/svg11.dtd"><svg t="1500548512008" class="icon" style="" viewBox="0 0 1024 1024" version="1.1" xmlns="http://www.w3.org/2000/svg" p-id="2913" xmlns:xlink="http://www.w3.org/1999/xlink" width="200" height="200"><defs><style type="text/css"></style></defs><path d="M512 512m-512 0a512 512 0 1 0 1024 0 512 512 0 1 0-1024 0Z" fill="#FF1500" p-id="2914"></path><path d="M307.2 504.685714h51.2v-21.942857h321.828571v21.942857h51.2V351.085714H307.2v153.6z m-21.942857 65.828572h460.8v168.228571c0 21.942857-7.314286 36.571429-29.257143 36.571429h-7.314286c-21.942857 0-51.2 0-87.771428-7.314286 7.314286 21.942857 7.314286 36.571429 7.314285 51.2h95.085715c36.571429 7.314286 73.142857-21.942857 73.142857-58.514286V519.314286H241.371429v299.885714H292.571429V570.514286h-7.314286z m87.771428 204.8h43.885715v-29.257143H658.285714V614.4H365.714286v160.914286zM197.485714 307.2h629.028572v-43.885714H548.571429c-7.314286-21.942857-21.942857-43.885714-29.257143-65.828572l-51.2 14.628572c7.314286 14.628571 14.628571 29.257143 29.257143 51.2h-292.571429l-7.314286 43.885714z m482.742857 138.971429H358.4v-58.514286h321.828571v58.514286zM416.914286 709.485714v-58.514285h197.485714v58.514285H416.914286z" fill="#FFFFFF" p-id="2915"></path></svg>