<?xml version="1.0" standalone="no"?><!DOCTYPE svg PUBLIC "-//W3C//DTD SVG 1.1//EN" "http://www.w3.org/Graphics/SVG/1.1/DTD/svg11.dtd"><svg t="1499050177708" class="icon" style="" viewBox="0 0 1024 1024" version="1.1" xmlns="http://www.w3.org/2000/svg" p-id="3146" xmlns:xlink="http://www.w3.org/1999/xlink" width="200" height="200"><defs><style type="text/css"></style></defs><path d="M512 14.473928C237.968405 14.473928 13.804965 238.637368 13.804965 512.668963S237.968405 1010.863998 512 1010.863998s498.195035-224.16344 498.195035-498.195035S786.031595 14.473928 512 14.473928z" fill="#FFFFFF" p-id="3147"></path><path d="M512 14.473928C237.968405 14.473928 13.804965 238.637368 13.804965 512.668963S237.968405 1010.863998 512 1010.863998s498.195035-224.16344 498.195035-498.195035S786.031595 14.473928 512 14.473928z m0 968.658511c-260.165815 0-470.463475-210.29766-470.463475-470.463476S251.834185 42.083858 512 42.083858s470.463475 210.29766 470.463475 470.463475-210.29766 470.585105-470.463475 470.585106z" fill="#CDCDCD" p-id="3148"></path><path d="M705.756028 789.376411c-77.478085 0-138.414539-60.936453-138.414539-138.414539 0-77.478085 60.936453-138.414539 138.414539-138.414539 77.478085 0 138.414539 60.936453 138.414539 138.414539 0 77.599715-60.936453 138.414539-138.414539 138.414539z m0-249.097518c-60.936453 0-110.682979 49.868155-110.682979 110.682979s49.868155 110.682979 110.682979 110.682979c60.936453 0 110.682979-49.868155 110.682979-110.682979s-49.746526-110.682979-110.682979-110.682979z m-193.756028 55.463119v55.34149h-55.341489v-55.34149h55.341489z m-166.024468-83.073049v193.756028c0 16.663262 11.068298 27.73156 27.731559 27.73156h188.161064c5.594964 11.068298 13.86578 19.339114 19.339114 27.731559H373.585461c-30.407412 0-55.341489-24.934078-55.341489-55.341489V263.571446c0-30.407412 24.934078-55.341489 55.341489-55.34149h221.365958c30.407412 0 55.341489 24.934078 55.34149 55.34149v232.434255c-13.86578 5.594964-24.934078 11.068298-36.002376 16.663262H345.975532z m276.707447-249.097517c0-16.663262-11.068298-27.73156-27.73156-27.73156h-221.365958c-16.663262 0-27.73156 11.068298-27.731559 27.73156v221.365957h276.829077v-221.365957zM539.73156 346.644495h-110.682979v-27.73156h110.682979V346.644495z m0 55.341489h-110.682979v-27.731559h110.682979v27.731559z m193.634398 138.292909l-83.073049 110.682979h55.341489l-55.341489 83.073049 110.682979-110.682979h-55.34149l27.73156-83.073049z" fill="#707070" p-id="3149"></path></svg>