<?xml version="1.0" standalone="no"?><!DOCTYPE svg PUBLIC "-//W3C//DTD SVG 1.1//EN" "http://www.w3.org/Graphics/SVG/1.1/DTD/svg11.dtd"><svg t="1497511797436" class="icon" style="" viewBox="0 0 3072 1024" version="1.1" xmlns="http://www.w3.org/2000/svg" p-id="2081" xmlns:xlink="http://www.w3.org/1999/xlink" width="600" height="200"><defs><style type="text/css"></style></defs><path d="M211.451-8.304h2640.001c65.999 0 120.005 54.002 120.005 120.005v720.001c0 65.999-54.002 120.005-120.005 120.005h-2640.001c-65.999 0-120.005-54.002-120.005-120.005v-720.001c0-65.999 53.998-120.005 120.005-120.005z" fill="#848484" p-id="2082"></path><path d="M2689.456 711.7c-96.002-71.999-167.991-168.003-210.003-282.003-12.016-18.001-17.994-36-24-47.995-36 131.997-113.996 251.997-228 335.996-6.001-11.999-18.001-18.001-24-30.003 120.005-84.001 197.997-203.999 234-342.012-17.994-36-47.995-71.999-78.002-95.997l18.001-17.994c54.002 48.010 102.003 114.004 126.004 180.001 41.998 107.999 113.996 203.999 210.003 269.985-12.016 11.999-18.001 24-24 30.003zM1825.455 411.697h197.997c17.994-30.003 41.998-60 60-90.005l24 12.016c-12.016 29.998-36 53.998-54.002 77.998h120.005v24h-347.988v-24zM1939.453 405.694c-18.001-29.998-36-54.002-54.002-71.999l24-12.016c18.001 18.001 36 42.003 54.002 65.999l-24 18.001zM1843.454 291.693h162.002c-12.016-17.994-18.001-36-29.998-53.998l24-12.016c18.001 29.998 41.998 77.998 29.998 60l-24 6.001h149.999v24h-312.003v-24zM1825.455 513.692h96.002l36-54.002 29.998 5.993c-12.016 17.994-24 36-29.998 48.010h216v24h-72.020c-17.994 41.998-41.998 78.002-71.999 107.999-30.003-12.016 78.002 29.998 137.997 60l-18.001 24c-60-29.998-108.009-48.010-144.003-65.999-60 36-126.004 60-192.001 71.999-6.001-11.999-12.016-17.994-18.001-29.998 60-6.001 120.005-24 180.001-53.998 6.001 6.001-78.002-30.003-113.996-48.010 18.001-18.001 29.998-42.003 48.010-60h-84.001v-30.003zM1897.469 591.692c-24-11.999 54.002 18.001 102.003 41.998 29.998-24 54.002-53.998 71.999-89.997h-132.011c-18.001 11.999-29.998 30.003-42.003 48.010zM1765.451 501.703v162.002c6.001 24-11.999 53.998-36 60h-65.999c0-12.016 0-17.994-5.993-24v-6.001h48.010c12.016 0 30.003-6.001 30.003-24v-156c-12.016 0-65.999 18.001-65.999 18.001l-6.001-29.998 72.020-18.001v-132.011h-65.999v-24h65.999v-102.003h29.998v102.003h54.002v24h-54.002v120.005c12.016-6.001 36-12.016 54.002-17.994v29.998l-54.002 18.001zM1609.461 681.692c-89.997-48.010-167.991-120.005-216-209.993v258h-29.998v-258c-54.002 89.997-125.996 168.003-222.002 222.002-5.993-6.001-12.016-17.994-18.001-24 83.996-48.010 161.999-113.996 216-198.002h-210.003v-30.003h234v-102.003h-203.999v-24h203.999v-95.997h29.998v89.997h203.999v24h-203.999v102.003h234v36h-210.003c53.998 77.998 126.004 144.003 216 185.997l-24 24zM571.455 831.699l-239.999-179.999v-359.997l239.999-180.001h120.005l240.002 180.001v359.997l-240.002 179.999h-120.005zM871.458 327.691l-191.999-149.999h-95.997l-191.999 149.999v294.001l191.999 143.989h95.997l191.999-144.003v-294.001zM523.452 579.696h-36l120.005-113.996-113.996-120.005h36s42.003 42.003 95.997 102.003l102.003-102.003h36l-120.005 120.005 113.996 114.004h-41.998l-95.997-102.003-95.997 102.003z" fill="#FFFFFF" p-id="2083"></path></svg>