<?xml version="1.0" standalone="no"?><!DOCTYPE svg PUBLIC "-//W3C//DTD SVG 1.1//EN" "http://www.w3.org/Graphics/SVG/1.1/DTD/svg11.dtd"><svg t="1499050125858" class="icon" style="" viewBox="0 0 1024 1024" version="1.1" xmlns="http://www.w3.org/2000/svg" p-id="2674" xmlns:xlink="http://www.w3.org/1999/xlink" width="200" height="200"><defs><style type="text/css"></style></defs><path d="M512 14.473928C237.968405 14.473928 13.804965 238.637368 13.804965 512.668963S237.968405 1010.863998 512 1010.863998s498.195035-224.16344 498.195035-498.195035S786.031595 14.473928 512 14.473928z" fill="#FFFFFF" p-id="2675"></path><path d="M512 14.473928C237.968405 14.473928 13.804965 238.637368 13.804965 512.668963S237.968405 1010.863998 512 1010.863998s498.195035-224.16344 498.195035-498.195035S786.031595 14.473928 512 14.473928z m0 968.658511c-260.165815 0-470.463475-210.29766-470.463475-470.463476S251.834185 42.083858 512 42.083858s470.463475 210.29766 470.463475 470.463475-210.29766 470.585105-470.463475 470.585106z" fill="#CDCDCD" p-id="2676"></path><path d="M650.414539 817.10797c-77.478085 0-138.414539-60.936453-138.414539-138.414538 0-77.478085 60.936453-138.414539 138.414539-138.414539 77.478085 0 138.414539 60.936453 138.414538 138.414539 0 77.478085-60.936453 138.414539-138.414538 138.414538z m0-249.097517c-60.936453 0-110.682979 49.868155-110.682979 110.682979 0 60.936453 49.868155 110.682979 110.682979 110.682979 60.936453 0 110.682979-49.868155 110.682979-110.682979s-49.868155-110.682979-110.682979-110.682979z m0 166.024468c-30.407412 0-55.341489-24.934078-55.34149-55.341489s24.934078-55.341489 55.34149-55.34149 55.341489 24.934078 55.341489 55.34149-24.934078 55.341489-55.341489 55.341489z m0-82.951419c-16.663262 0-27.73156 11.068298-27.73156 27.731559 0 16.663262 11.068298 27.73156 27.73156 27.73156 16.663262 0 27.73156-11.068298 27.731559-27.73156-0.12163-16.663262-11.189928-27.73156-27.731559-27.731559z m-193.756028-27.73156V678.693432h-55.34149v-55.34149h55.34149zM705.756028 457.327474h-110.682979v66.409787c-13.86578 5.594964-24.934078 11.068298-36.002376 16.663262H290.634042v193.756028c0 16.663262 11.068298 27.73156 27.73156 27.731559H506.405036c5.594964 11.068298 11.068298 19.339114 19.339114 27.73156H318.243972c-30.407412 0-55.341489-24.934078-55.34149-55.34149V291.181375c0-30.407412 24.934078-55.341489 55.34149-55.341489h221.365958c30.407412 0 55.341489 24.934078 55.341489 55.341489h55.34149v27.73156h-55.34149V346.644495h55.34149v27.731559h-55.34149v55.34149h110.682979V235.839886c0-13.86578-13.86578-27.73156-27.731559-27.73156h-110.682979v-27.731559h110.682979c30.407412 0 55.341489 22.136596 55.341489 52.544007v307.236489h-27.731559V457.327474h0.243259zM567.341489 291.181375c0-16.663262-11.068298-27.73156-27.731559-27.731559h-221.365958c-16.663262 0-27.73156 11.068298-27.73156 27.731559v221.365958h276.829077v-221.365958z m-83.073049 83.07305h-110.682979V346.644495h110.682979v27.60993z m0 55.341489h-110.682979v-27.73156h110.682979v27.73156z" fill="#707070" p-id="2677"></path></svg>