<?xml version="1.0" standalone="no"?><!DOCTYPE svg PUBLIC "-//W3C//DTD SVG 1.1//EN" "http://www.w3.org/Graphics/SVG/1.1/DTD/svg11.dtd"><svg t="1497576987743" class="icon" style="" viewBox="0 0 1024 1024" version="1.1" xmlns="http://www.w3.org/2000/svg" p-id="2867" xmlns:xlink="http://www.w3.org/1999/xlink" width="200" height="200"><defs><style type="text/css"></style></defs><path d="M512 512m-512 0a512 512 0 1 0 1024 0 512 512 0 1 0-1024 0Z" fill="#CDCDCD" p-id="2868"></path><path d="M475.428571 570.514286h73.142858v73.142857h-73.142858z" fill="#848484" p-id="2869"></path><path d="M621.714286 468.114286V292.571429c0-29.257143-36.571429-65.828571-73.142857-65.828572h-73.142858c-43.885714 0-73.142857 29.257143-73.142857 65.828572v175.542857c-43.885714 36.571429-73.142857 87.771429-73.142857 146.285714 0 102.4 80.457143 182.857143 182.857143 182.857143s182.857143-80.457143 182.857143-182.857143c0-58.514286-29.257143-109.714286-73.142857-146.285714zM475.428571 292.571429h73.142858v146.285714c-14.628571-7.314286-21.942857-7.314286-36.571429-7.314286s-21.942857 0-36.571429 7.314286V292.571429zM512 724.114286c-58.514286 0-109.714286-51.2-109.714286-109.714286S453.485714 504.685714 512 504.685714s109.714286 51.2 109.714286 109.714286S570.514286 724.114286 512 724.114286z" fill="#848484" p-id="2870"></path></svg>