<?xml version="1.0" standalone="no"?><!DOCTYPE svg PUBLIC "-//W3C//DTD SVG 1.1//EN" "http://www.w3.org/Graphics/SVG/1.1/DTD/svg11.dtd"><svg t="1498701019015" class="icon" style="" viewBox="0 0 3072 1024" version="1.1" xmlns="http://www.w3.org/2000/svg" p-id="4786" xmlns:xlink="http://www.w3.org/1999/xlink" width="600" height="200"><defs><style type="text/css"></style></defs><path d="M128 0h2816c70.4 0 128 57.6 128 128v768c0 70.4-57.6 128-128 128H128c-70.4 0-128-57.6-128-128V128C0 57.6 57.6 0 128 0z" fill="#79BF1E" p-id="4787"></path><path d="M2272 422.4c-6.4-6.4-12.8-19.2-19.2-25.6 57.6-44.8 102.4-96 134.4-153.6l32 6.4c-6.4 12.8-19.2 25.6-25.6 38.4h396.8v25.6h-416c-25.6 44.8-64 76.8-102.4 108.8z m-211.2 128c-19.2 96-70.4 185.6-153.6 236.8-6.4-6.4-12.8-19.2-25.6-25.6 102.4-57.6 160-160 160-275.2V396.8h32c0 32 0 64-6.4 108.8 12.8 102.4 64 192 153.6 256l-25.6 25.6c-70.4-64-115.2-147.2-134.4-236.8z m83.2 32l-25.6-19.2c25.6-32 44.8-57.6 64-89.6l25.6 12.8c-19.2 32-44.8 64-64 96z m-160 0c-19.2-32-32-57.6-51.2-89.6l25.6-12.8c19.2 25.6 38.4 57.6 57.6 83.2l-32 19.2z m-153.6 115.2c-6.4-6.4-19.2-12.8-25.6-19.2 64-96 108.8-204.8 121.6-320H1856v-32h76.8c6.4-25.6 6.4-57.6 6.4-83.2h32c0 32-6.4 57.6-6.4 83.2h256v25.6h-262.4c-19.2 128-64 243.2-128 345.6z m12.8-262.4l-57.6-57.6v409.6h-32V249.6h32v121.6l12.8-12.8c19.2 12.8 38.4 32 64 57.6l-19.2 19.2zM1676.8 512c12.8-51.2 19.2-96 25.6-128h25.6c-6.4 44.8-19.2 89.6-25.6 134.4-6.4-6.4-19.2-6.4-25.6-6.4zM1600 742.4c-19.2 12.8-44.8 19.2-70.4 19.2h-275.2c-44.8 6.4-83.2-19.2-96-57.6V390.4h32v89.6h358.4V313.6h-403.2v-32h435.2V512h-390.4v153.6c0 19.2 0 38.4 12.8 51.2 12.8 12.8 32 19.2 51.2 12.8H1523.2c38.4 6.4 70.4-19.2 70.4-57.6v-6.4c6.4-19.2 6.4-38.4 12.8-70.4 6.4 6.4 19.2 6.4 32 12.8 0 19.2-6.4 44.8-12.8 64 0 32-12.8 51.2-25.6 70.4z m-1337.6-25.6V326.4l332.8-192 332.8 192v390.4l-332.8 192-332.8-192z m614.4-32v-320L595.2 198.4 313.6 358.4v320l281.6 160 281.6-153.6z m-332.8-64l198.4-262.4 19.2 38.4-217.6 281.6-12.8 6.4-108.8-192 32-19.2 89.6 147.2z m1792-256h396.8v179.2h-396.8V364.8z m32 153.6h339.2v-51.2H2368v51.2z m0-76.8h339.2v-51.2H2368v51.2z m96 121.6c-12.8 12.8-25.6 25.6-32 38.4h300.8v25.6c-44.8 32-96 64-147.2 83.2 70.4 19.2 140.8 32 211.2 38.4-6.4 6.4-12.8 19.2-12.8 25.6-76.8-12.8-160-32-236.8-57.6-76.8 25.6-160 51.2-243.2 64-6.4-12.8-6.4-19.2-12.8-25.6 76.8-12.8 147.2-25.6 217.6-51.2-44.8-19.2-83.2-44.8-115.2-76.8-38.4 32-76.8 57.6-115.2 76.8-6.4-6.4-12.8-19.2-19.2-25.6 70.4-32 128-83.2 172.8-140.8l32 25.6z m76.8 134.4c51.2-19.2 102.4-44.8 147.2-76.8h-275.2c38.4 32 83.2 57.6 128 76.8z" fill="#FFFFFF" p-id="4788"></path></svg>