<?xml version="1.0" standalone="no"?><!DOCTYPE svg PUBLIC "-//W3C//DTD SVG 1.1//EN" "http://www.w3.org/Graphics/SVG/1.1/DTD/svg11.dtd"><svg t="1502678476977" class="icon" style="" viewBox="0 0 1132 1024" version="1.1" xmlns="http://www.w3.org/2000/svg" p-id="6545" xmlns:xlink="http://www.w3.org/1999/xlink" width="221.09375" height="200"><defs><style type="text/css"></style></defs><path d="M323.880421 485.052632v107.789473H216.090947V485.052632h107.789474z m161.684211 0v107.789473H377.775158V485.052632h107.789474z m161.68421 0v107.789473h-107.789474V485.052632h107.789474z m-53.894737-215.578948H108.301474c-26.947368-5.389474-48.505263 16.168421-53.894737 37.726316V862.315789l53.894737-53.894736h646.736842c26.947368 5.389474 48.505263-10.778947 53.894737-37.726316V646.736842h53.894736v107.789474c5.389474 53.894737-32.336842 102.4-86.231578 107.789473H162.196211l-161.684211 161.684211V323.368421c-5.389474-53.894737 32.336842-102.4 86.231579-107.789474H593.354105v53.894737z" fill="#6B6B6D" p-id="6546"></path><path d="M1116.133053 441.936842L916.722526 91.621053c-53.894737-97.010526-129.347368-102.4-199.410526 0L517.901474 441.936842c-26.947368 37.726316-59.284211 150.905263 97.010526 150.905263h398.821053c145.515789 0 123.957895-107.789474 102.4-150.905263z m-301.810527 37.726316c-16.168421 0-26.947368-10.778947-26.947368-26.947369s10.778947-26.947368 26.947368-26.947368 26.947368 10.778947 26.947369 26.947368c0 10.778947-10.778947 26.947368-26.947369 26.947369z m0-118.568421c-16.168421 0-26.947368-53.894737-26.947368-113.178948 0-64.673684 10.778947-113.178947 26.947368-113.178947s26.947368 53.894737 26.947369 113.178947-10.778947 113.178947-26.947369 113.178948z" fill="#FE8520" p-id="6547"></path></svg>