<?xml version="1.0" standalone="no"?><!DOCTYPE svg PUBLIC "-//W3C//DTD SVG 1.1//EN" "http://www.w3.org/Graphics/SVG/1.1/DTD/svg11.dtd"><svg t="1497577256457" class="icon" style="" viewBox="0 0 2978 1024" version="1.1" xmlns="http://www.w3.org/2000/svg" p-id="3928" xmlns:xlink="http://www.w3.org/1999/xlink" width="581.640625" height="200"><defs><style type="text/css"></style></defs><path d="M93.090909 0h2792.727273c51.2 0 93.090909 41.890909 93.090909 93.090909v837.818182c0 51.2-41.890909 93.090909-93.090909 93.090909H93.090909c-51.2 0-93.090909-41.890909-93.090909-93.090909V93.090909C0 41.890909 41.890909 0 93.090909 0z" fill="#79BF1E" p-id="3929"></path><path d="M2425.018182 614.4c-41.890909-46.545455-79.127273-88.436364-107.054546-121.018182l23.272728-18.618182c32.581818 32.581818 69.818182 74.472727 111.709091 116.363637l-27.927273 23.272727z m148.945454-190.836364v246.690909c0 46.545455-23.272727 65.163636-74.472727 65.163637h-74.472727c0-9.309091-4.654545-18.618182-9.309091-27.927273h74.472727c37.236364 0 55.854545-13.963636 51.2-41.890909V423.563636h-251.345454v-27.927272h251.345454V283.927273h32.581818v111.709091H2653.090909v27.927272h-79.127273z m-325.818181 316.509091h-27.927273V451.490909c-18.618182 32.581818-41.890909 60.509091-65.163637 88.436364-4.654545-9.309091-9.309091-23.272727-13.963636-32.581818 55.854545-65.163636 97.745455-144.290909 130.327273-223.418182l32.581818 9.309091c-13.963636 37.236364-32.581818 74.472727-51.2 111.709091v335.127272z m-144.29091-27.927272c-9.309091 9.309091-13.963636 18.618182-18.618181 23.272727-83.781818-9.309091-162.909091-37.236364-237.381819-74.472727-74.472727 37.236364-153.6 65.163636-237.381818 83.781818-4.654545-9.309091-9.309091-18.618182-18.618182-23.272728 79.127273-13.963636 158.254545-37.236364 232.727273-74.472727-55.854545-41.890909-102.4-97.745455-125.672727-167.563636h-51.2v-23.272727h195.490909V372.363636h-246.690909v-23.272727h246.690909V279.272727h27.927273v69.818182h237.381818V372.363636h-237.381818v79.127273h153.6v23.272727c-32.581818 65.163636-79.127273 125.672727-144.290909 162.909091 65.163636 41.890909 144.290909 65.163636 223.418181 74.472728z m-121.018181-232.727273H1722.181818c23.272727 60.509091 65.163636 116.363636 121.018182 148.945454 65.163636-32.581818 111.709091-88.436364 139.636364-148.945454z m-474.763637 223.418182c-18.618182 9.309091-41.890909 18.618182-69.818182 13.963636h-265.30909c-65.163636 0-93.090909-23.272727-93.09091-74.472727V404.945455h32.581819v74.472727h344.436363v-139.636364H1070.545455v-27.927273h418.90909v195.49091h-372.363636v130.327272c0 13.963636 4.654545 32.581818 13.963636 41.890909 13.963636 9.309091 32.581818 13.963636 51.2 13.963637H1442.909091c32.581818 4.654545 65.163636-18.618182 69.818182-51.2 4.654545-13.963636 9.309091-32.581818 13.963636-55.854546 9.309091 4.654545 18.618182 4.654545 27.927273 9.309091-4.654545 18.618182-4.654545 37.236364-9.309091 55.854546-9.309091 18.618182-23.272727 37.236364-37.236364 51.2zM605.090909 791.272727c-153.6 0-279.272727-125.672727-279.272727-279.272727s125.672727-279.272727 279.272727-279.272727 279.272727 125.672727 279.272727 279.272727-125.672727 279.272727-279.272727 279.272727z m0-512c-130.327273 0-232.727273 107.054545-232.727273 232.727273s107.054545 232.727273 232.727273 232.727273 232.727273-107.054545 232.727273-232.727273c0-130.327273-102.4-232.727273-232.727273-232.727273z m-27.927273 307.2l-74.472727-88.436363 23.272727-9.309091 60.509091 65.163636 134.981818-116.363636 13.963637 18.618182-148.945455 125.672727-9.309091 4.654545z" fill="#FFFFFF" p-id="3930"></path></svg>