<?xml version="1.0" standalone="no"?><!DOCTYPE svg PUBLIC "-//W3C//DTD SVG 1.1//EN" "http://www.w3.org/Graphics/SVG/1.1/DTD/svg11.dtd"><svg t="1497577368521" class="icon" style="" viewBox="0 0 2978 1024" version="1.1" xmlns="http://www.w3.org/2000/svg" p-id="1392" xmlns:xlink="http://www.w3.org/1999/xlink" width="581.640625" height="200"><defs><style type="text/css"></style></defs><path d="M93.090909 0h2792.727273c51.2 0 93.090909 41.890909 93.090909 93.090909v837.818182c0 51.2-41.890909 93.090909-93.090909 93.090909H93.090909c-51.2 0-93.090909-41.890909-93.090909-93.090909V93.090909C0 41.890909 41.890909 0 93.090909 0z" fill="#848484" p-id="1393"></path><path d="M2425.018182 614.4c-41.890909-46.545455-79.127273-88.436364-107.054546-121.018182l23.272728-18.618182c32.581818 32.581818 69.818182 74.472727 111.709091 116.363637l-27.927273 23.272727z m148.945454-190.836364v246.690909c0 46.545455-23.272727 65.163636-74.472727 65.163637h-74.472727c0-9.309091-4.654545-18.618182-9.309091-27.927273h74.472727c37.236364 0 55.854545-13.963636 51.2-41.890909V423.563636h-251.345454v-27.927272h251.345454V283.927273h32.581818v111.709091H2653.090909v27.927272h-79.127273z m-325.818181 316.509091h-27.927273V451.490909c-18.618182 32.581818-41.890909 60.509091-65.163637 88.436364-4.654545-9.309091-9.309091-23.272727-13.963636-32.581818 55.854545-65.163636 97.745455-144.290909 130.327273-223.418182l32.581818 9.309091c-13.963636 37.236364-32.581818 74.472727-51.2 111.709091v335.127272z m-144.29091-27.927272c-9.309091 9.309091-13.963636 18.618182-18.618181 23.272727-83.781818-9.309091-162.909091-37.236364-237.381819-74.472727-74.472727 37.236364-153.6 65.163636-237.381818 83.781818-4.654545-9.309091-9.309091-18.618182-18.618182-23.272728 79.127273-13.963636 158.254545-37.236364 232.727273-74.472727-55.854545-41.890909-102.4-97.745455-125.672727-167.563636h-51.2v-23.272727h195.490909V372.363636h-246.690909v-23.272727h246.690909V279.272727h27.927273v69.818182h237.381818V372.363636h-237.381818v79.127273h153.6v23.272727c-32.581818 65.163636-79.127273 125.672727-144.290909 162.909091 65.163636 41.890909 144.290909 65.163636 223.418181 74.472728z m-121.018181-232.727273H1722.181818c23.272727 60.509091 65.163636 116.363636 121.018182 148.945454 65.163636-32.581818 111.709091-88.436364 139.636364-148.945454z m-474.763637 228.072727c-74.472727-37.236364-139.636364-93.090909-190.836363-162.909091V744.727273h-37.236364v-195.490909c-51.2 65.163636-116.363636 125.672727-190.836364 167.563636-9.309091-9.309091-13.963636-23.272727-23.272727-32.581818 79.127273-37.236364 144.290909-93.090909 200.145455-162.909091h-190.836364v-37.236364h204.8V395.636364h-181.527273v-37.236364h181.527273V279.272727h37.236364v79.127273h181.527272v37.236364h-181.527272v88.436363h204.8v37.236364h-195.490909c51.2 69.818182 121.018182 121.018182 200.145454 153.6 0 9.309091-9.309091 18.618182-18.618182 32.581818zM795.927273 791.272727h-55.854546c-27.927273 0-55.854545-9.309091-79.127272-27.927272-32.581818 13.963636-69.818182 23.272727-102.4 27.927272h-93.09091c-51.2-4.654545-97.745455-23.272727-139.636363-51.2v-102.4h46.545454v51.2c79.127273 69.818182 200.145455 69.818182 279.272728 0v-74.472727c-27.927273 9.309091-60.509091 18.618182-93.090909 23.272727h-93.09091c-51.2-4.654545-97.745455-23.272727-139.636363-51.2v-102.4h46.545454v51.2c79.127273 69.818182 200.145455 69.818182 279.272728 0V465.454545s4.654545-4.654545 9.309091-4.654545c-32.581818 13.963636-65.163636 23.272727-102.4 23.272727h-93.09091c-51.2 0-97.745455-18.618182-139.636363-46.545454V283.927273c37.236364-41.890909 139.636364-51.2 139.636363-51.2h93.09091c51.2 4.654545 97.745455 23.272727 139.636363 51.2v153.6l-13.963636 13.963636 55.854545-13.963636h55.854546c32.581818 4.654545 60.509091 13.963636 88.436363 32.581818v97.745454c-23.272727 18.618182-55.854545 32.581818-88.436363 32.581819h-55.854546c-13.963636 0-27.927273-4.654545-41.890909-9.309091-4.654545 4.654545-9.309091 9.309091-18.618182 13.963636v27.927273l9.309091 9.309091h9.309091v4.654545c23.272727 13.963636 46.545455 18.618182 69.818182 18.618182 32.581818 4.654545 65.163636-9.309091 88.436364-32.581818v-32.581818h27.927272v65.163636c-23.272727 18.618182-55.854545 27.927273-88.436363 32.581818h-55.854546c-13.963636 0-27.927273-4.654545-41.890909-9.309091V744.727273c23.272727 13.963636 46.545455 18.618182 69.818182 18.618182 32.581818 4.654545 65.163636-9.309091 88.436364-32.581819V698.181818h27.927272v65.163637c-23.272727 13.963636-55.854545 27.927273-88.436363 27.927272zM651.636364 335.127273c-79.127273-69.818182-200.145455-69.818182-279.272728 0v51.2c79.127273 69.818182 200.145455 69.818182 279.272728 0V335.127273z m46.545454 153.6v60.509091c23.272727 13.963636 46.545455 18.618182 69.818182 18.618181 32.581818 4.654545 65.163636-9.309091 88.436364-32.581818v-32.581818c-23.272727-23.272727-55.854545-37.236364-88.436364-32.581818-23.272727-4.654545-51.2 4.654545-69.818182 18.618182z" fill="#FFFFFF" p-id="1394"></path></svg>