<?xml version="1.0" standalone="no"?><!DOCTYPE svg PUBLIC "-//W3C//DTD SVG 1.1//EN" "http://www.w3.org/Graphics/SVG/1.1/DTD/svg11.dtd"><svg t="1499050100434" class="icon" style="" viewBox="0 0 1024 1024" version="1.1" xmlns="http://www.w3.org/2000/svg" p-id="2438" xmlns:xlink="http://www.w3.org/1999/xlink" width="200" height="200"><defs><style type="text/css"></style></defs><path d="M512 14.473928C236.995368 14.473928 13.804965 237.664331 13.804965 512.668963S236.995368 1010.863998 512 1010.863998s498.195035-223.190403 498.195035-498.195035S787.004632 14.473928 512 14.473928z" fill="#FFFFFF" p-id="2439"></path><path d="M512 14.473928C236.995368 14.473928 13.804965 237.664331 13.804965 512.668963S236.995368 1010.863998 512 1010.863998s498.195035-223.190403 498.195035-498.195035S787.004632 14.473928 512 14.473928z m0 976.442808c-265.031001 0-478.247773-213.216772-478.247773-478.247773S246.968999 34.42119 512 34.42119s478.247773 213.216772 478.247773 478.247773-213.216772 478.247773-478.247773 478.247773z" fill="#79BE1E" p-id="2440"></path><path d="M681.430099 811.634636c-81.735123 0-149.482836-67.747714-149.482837-149.482836s67.747714-149.482836 149.482837-149.482837 149.482836 67.747714 149.482836 149.482837S763.043592 811.634636 681.430099 811.634636z m0-279.018411c-71.761492 0-129.535574 57.774082-129.535575 129.535575s57.774082 129.535574 129.535575 129.535574 129.535574-57.774082 129.535574-129.535574-57.895712-129.535574-129.535574-129.535575z m-89.76268 119.561943l59.841786 39.894525 119.561944-99.614681-119.561944 139.509205-59.841786-79.789049z m-99.614681-19.947262V692.072693h-79.667419v-59.841787h79.667419z m-179.2821-79.667419v179.40373c8.027557 17.879558 21.893337 31.866968 39.894524 39.894524h195.337214c5.959853 8.027557 11.919705 13.987409 19.947262 19.947262H352.543532c-21.893337 0-59.841786-37.82682-59.841786-59.841786V293.492339c0-21.893337 37.82682-59.841786 59.841786-59.841787h199.229363c31.866968 4.013778 55.828008 27.853189 59.841786 59.841787v235.110108c-13.987409 5.959853-25.907115 13.987409-37.82682 23.96104H312.770638z m278.896781-259.071148c-8.027557-17.879558-21.893337-31.866968-39.894524-39.894525H352.543532c-17.879558 8.027557-31.866968 21.893337-39.894524 39.894525v239.123886h279.018411V293.492339z m-79.667419 79.667419h-119.561943v-19.947262h119.561943v19.947262z m0 59.841786h-119.561943v-19.947262h119.561943V433.001544z" fill="#79BE1E" p-id="2441"></path></svg>