<?xml version="1.0" standalone="no"?><!DOCTYPE svg PUBLIC "-//W3C//DTD SVG 1.1//EN" "http://www.w3.org/Graphics/SVG/1.1/DTD/svg11.dtd"><svg t="1499050151319" class="icon" style="" viewBox="0 0 1024 1024" version="1.1" xmlns="http://www.w3.org/2000/svg" p-id="2910" xmlns:xlink="http://www.w3.org/1999/xlink" width="200" height="200"><defs><style type="text/css"></style></defs><path d="M512 14.473928C237.968405 14.473928 13.804965 238.637368 13.804965 512.668963S237.968405 1010.863998 512 1010.863998s498.195035-224.16344 498.195035-498.195035S786.031595 14.473928 512 14.473928z" fill="#FFFFFF" p-id="2911"></path><path d="M512 14.473928C237.968405 14.473928 13.804965 238.637368 13.804965 512.668963S237.968405 1010.863998 512 1010.863998s498.195035-224.16344 498.195035-498.195035S786.031595 14.473928 512 14.473928z m0 968.658511c-260.165815 0-470.463475-210.29766-470.463475-470.463476S251.834185 42.083858 512 42.083858s470.463475 210.29766 470.463475 470.463475-210.29766 470.585105-470.463475 470.585106z" fill="#CDCDCD" p-id="2912"></path><path d="M871.780496 581.876232l-127.34624 99.614681v-74.680603c-116.277943 0-160.551134 55.341489-204.824326 99.614681 0-190.958546 204.824326-174.416914 204.824326-174.416914V457.327474l127.34624 124.548758z m-282.302411 49.746526c49.868155-38.799857 116.277943-55.341489 179.890249-49.868155v49.868155l77.478085-49.868155-77.478085-74.680604v49.868156c-96.817199-2.797482-138.414539 16.663262-179.890249 74.680603z m-77.478085-35.880746v55.34149h-55.341489v-55.34149h55.341489z m99.614681-83.073049H345.975532v193.756028c0 16.663262 11.068298 27.73156 27.731559 27.73156h221.365958c13.86578 0 27.73156-11.068298 27.73156-27.73156 8.270816 8.270816 13.86578 13.86578 24.934077 19.339114-8.270816 22.136596-27.73156 36.002376-52.544007 36.002376H373.828721c-30.407412 0-55.341489-24.934078-55.34149-55.34149V263.571446c0-30.407412 24.934078-55.341489 55.34149-55.34149h221.365958c30.407412 0 55.341489 24.934078 55.341489 55.34149v215.892623c-13.987409 8.270816-27.853189 19.339114-38.921487 33.204894z m11.068298-249.097517c0-16.663262-11.068298-27.73156-27.73156-27.73156h-221.365958c-16.663262 0-27.73156 11.068298-27.731559 27.73156v221.365957h276.829077v-221.365957zM539.73156 346.644495h-110.682979v-27.73156h110.682979V346.644495z m0 55.341489h-110.682979v-27.731559h110.682979v27.731559z" fill="#707070" p-id="2913"></path></svg>