<?xml version="1.0" standalone="no"?><!DOCTYPE svg PUBLIC "-//W3C//DTD SVG 1.1//EN" "http://www.w3.org/Graphics/SVG/1.1/DTD/svg11.dtd"><svg t="1497514415592" class="icon" style="" viewBox="0 0 1123 1024" version="1.1" xmlns="http://www.w3.org/2000/svg" p-id="1393" xmlns:xlink="http://www.w3.org/1999/xlink" width="219.3359375" height="200"><defs><style type="text/css"></style></defs><path d="M627.612903 792.774194v-264.258065H198.193548V66.064516h858.83871v726.709678H627.612903z" fill="#E5F3FB" p-id="1394"></path><path d="M1057.032258 825.806452h-99.096774v-33.032258h99.096774v-33.032259h33.032258v66.064517h-33.032258z m0-264.258065h33.032258v132.129032h-33.032258v-132.129032z m0-198.193548h33.032258v132.129032h-33.032258v-132.129032z m0-198.193549h33.032258v132.129033h-33.032258V165.16129z m0-99.096774h-33.032258V33.032258h66.064516v66.064516h-33.032258V66.064516z m-231.225806-33.032258h132.129032v33.032258h-132.129032V33.032258z m-198.193549 0h132.129032v33.032258h-132.129032V33.032258z m0 759.741936h66.064516v33.032258h-66.064516v132.129032c0 19.819355-13.212903 33.032258-33.032258 33.032258H66.064516c-19.819355 0-33.032258-13.212903-33.032258-33.032258V561.548387c0-19.819355 13.212903-33.032258 33.032258-33.032258h99.096774v-99.096774h33.032258v99.096774h396.387097c19.819355 0 33.032258 13.212903 33.032258 33.032258v231.225807z m-66.064516-198.193549H99.096774v330.322581h462.451613V594.580645zM429.419355 33.032258h132.129032v33.032258h-132.129032V33.032258zM231.225806 33.032258h132.129033v33.032258H231.225806V33.032258zM165.16129 231.225806h33.032258v132.129033H165.16129V231.225806z m0-198.193548h33.032258v132.129032H165.16129V33.032258z m726.709678 792.774194h-132.129033v-33.032258h132.129033v33.032258z m-231.225807-330.322581l132.129033-165.16129-66.064517-66.064516 198.193549-33.032259-33.032258 198.193549-66.064516-66.064516-165.161291 132.129032z" fill="#008ED6" p-id="1395"></path></svg>