<?xml version="1.0" standalone="no"?><!DOCTYPE svg PUBLIC "-//W3C//DTD SVG 1.1//EN" "http://www.w3.org/Graphics/SVG/1.1/DTD/svg11.dtd"><svg t="1502678471530" class="icon" style="" viewBox="0 0 1132 1024" version="1.1" xmlns="http://www.w3.org/2000/svg" p-id="6436" xmlns:xlink="http://www.w3.org/1999/xlink" width="221.09375" height="200"><defs><style type="text/css"></style></defs><path d="M323.880421 485.052632v107.789473H216.090947V485.052632h107.789474z m161.684211 0v107.789473H377.775158V485.052632h107.789474z m161.68421 0v107.789473h-107.789474V485.052632h107.789474z m-53.894737-215.578948H108.301474c-26.947368-5.389474-48.505263 16.168421-53.894737 37.726316V862.315789l53.894737-53.894736h646.736842c26.947368 5.389474 48.505263-10.778947 53.894737-37.726316V646.736842h53.894736v107.789474c5.389474 53.894737-32.336842 102.4-86.231578 107.789473H162.196211l-161.684211 161.684211V323.368421c-5.389474-53.894737 32.336842-102.4 86.231579-107.789474H593.354105v53.894737z" fill="#6B6B6D" p-id="6437"></path><path d="M1035.290947 53.894737H830.490947c-10.778947 0-32.336842 0-43.115789 10.778947L496.343579 361.094737c-5.389474 5.389474-10.778947 16.168421-10.778947 26.947368s5.389474 21.557895 10.778947 26.947369l226.357895 226.357894c5.389474 5.389474 16.168421 10.778947 26.947368 10.778948s21.557895-5.389474 26.947369-10.778948l291.031578-291.031579c10.778947-21.557895 10.778947-37.726316 10.778948-53.894736V97.010526c0-21.557895-21.557895-43.115789-43.11579-43.115789zM916.722526 269.473684c-32.336842 0-53.894737-21.557895-53.894737-53.894737s21.557895-53.894737 53.894737-53.894736 53.894737 21.557895 53.894737 53.894736-21.557895 53.894737-53.894737 53.894737z" fill="#2D90E6" p-id="6438"></path></svg>