<?xml version="1.0" standalone="no"?><!DOCTYPE svg PUBLIC "-//W3C//DTD SVG 1.1//EN" "http://www.w3.org/Graphics/SVG/1.1/DTD/svg11.dtd"><svg t="1499050218041" class="icon" style="" viewBox="0 0 1024 1024" version="1.1" xmlns="http://www.w3.org/2000/svg" p-id="3618" xmlns:xlink="http://www.w3.org/1999/xlink" width="200" height="200"><defs><style type="text/css"></style></defs><path d="M512 14.473928C236.995368 14.473928 13.804965 237.664331 13.804965 512.668963S236.995368 1010.863998 512 1010.863998s498.195035-223.190403 498.195035-498.195035S787.004632 14.473928 512 14.473928z" fill="#FFFFFF" p-id="3619"></path><path d="M512 14.473928C236.995368 14.473928 13.804965 237.664331 13.804965 512.668963S236.995368 1010.863998 512 1010.863998s498.195035-223.190403 498.195035-498.195035S787.004632 14.473928 512 14.473928z m0 976.442808c-265.031001 0-478.247773-213.216772-478.247773-478.247773S246.968999 34.42119 512 34.42119s478.247773 213.216772 478.247773 478.247773-213.216772 478.247773-478.247773 478.247773z" fill="#1F93D2" p-id="3620"></path><path d="M661.482836 811.634636c-81.735123 0-149.482836-67.747714-149.482836-149.482836s67.747714-149.482836 149.482836-149.482837 149.482836 67.747714 149.482837 149.482837-67.747714 149.482836-149.482837 149.482836z m0-279.018411c-71.761492 0-129.535574 57.774082-129.535574 129.535575s57.774082 129.535574 129.535574 129.535574S791.018411 733.913291 791.018411 662.1518s-57.774082-129.535574-129.535575-129.535575z m0 163.348616c-15.933484 0-29.920893-9.973631-33.934671-25.907114l-55.828008 1.946074v-19.947262h55.828008c4.013778-9.973631 11.919705-17.879558 23.96104-19.947262V592.336382h19.947263v39.894524c11.919705 1.946074 19.947262 9.973631 23.96104 19.947262h55.828008v19.947263l-55.828008-1.946075c-4.013778 13.86578-18.001188 25.785485-33.934672 25.785485z m0-47.800451c-8.027557 0-13.987409 5.959853-13.987409 13.98741s5.959853 13.987409 13.987409 13.987409S675.470246 670.179356 675.470246 662.1518c-0.12163-8.027557-6.081482-13.987409-13.98741-13.98741z m49.746526-414.513838s-21.893337-39.894524-39.894524-39.894524H492.052738V173.930396h179.40373s59.841786 19.947262 59.841786 59.841786v259.071149h-19.947262V233.650552h-0.12163zM472.105476 632.230906V692.072693h-79.667419v-59.841787h79.667419z m111.656016-358.685829h47.800451v19.947262h-39.894524v19.947262h39.894524V333.265233h-39.894524v139.509206h39.894524v19.947262h-39.894524v35.880746c-13.987409 5.959853-25.907115 13.987409-37.82682 23.96104H292.823376v179.40373c8.027557 17.879558 21.893337 31.866968 39.894524 39.894524h195.337213c5.959853 8.027557 11.919705 13.987409 19.947263 19.947262H332.59627c-21.893337 0-59.841786-37.82682-59.841786-59.841786V293.492339c0-21.893337 37.82682-59.841786 59.841786-59.841787H531.947262c21.893337 5.959853 41.840599 19.947262 51.81423 39.894525z m-290.938116 19.947262v239.123886h279.01841V293.492339c-8.027557-17.879558-21.893337-31.866968-39.894524-39.894525H332.59627c-17.879558 8.027557-31.866968 21.893337-39.772894 39.894525z m79.667419 119.561943h119.561943V433.001544h-119.561943v-19.947262z m0-59.841786h119.561943v19.947262h-119.561943v-19.947262z" fill="#1F93D2" p-id="3621"></path></svg>