<?xml version="1.0" standalone="no"?><!DOCTYPE svg PUBLIC "-//W3C//DTD SVG 1.1//EN" "http://www.w3.org/Graphics/SVG/1.1/DTD/svg11.dtd"><svg t="1497513399117" class="icon" style="" viewBox="0 0 1024 1024" version="1.1" xmlns="http://www.w3.org/2000/svg" p-id="6355" xmlns:xlink="http://www.w3.org/1999/xlink" width="200" height="200"><defs><style type="text/css"></style></defs><path d="M-0.002 512c0 282.787 229.245 512.002 512.002 512.002s512.002-229.245 512.002-512.002c0-282.787-229.245-512.002-512.002-512.002-282.787 0-512.002 229.245-512.002 512.002z" fill="#8ACA36" p-id="6356"></path><path d="M294.401 793.601c-44.803-38.4-51.195-108.807-12.799-153.588 6.401 0 12.799 0 12.799-6.378l44.785-38.4 44.803 38.4-44.803 38.4c-19.201 19.201-25.6 51.195-6.401 76.799l6.401 6.401c25.6 25.6 64.005 25.6 89.601 0l172.799-159.999c25.6-19.194 25.6-57.602 0-76.799-25.6-25.6-63.984-25.6-89.601-6.401l44.803 38.4c-51.195 44.803-128.005 44.803-172.799 0-44.803-38.4-51.195-102.397-12.799-147.201 0-6.401 6.401-12.799 12.799-12.799l172.799-159.999c51.195-44.803 128.005-44.803 172.799 0 44.803 38.4 51.195 108.807 12.799 153.588-6.401 0-6.401 0-12.799 6.378l-44.785 38.4-44.803-38.4 44.803-38.4c25.6-19.201 25.6-51.195 6.401-76.799l-6.401-6.401c-25.6-25.6-64.005-25.6-89.596 0l-172.799 159.999c-19.201 19.201-19.201 57.598 0 76.799 25.6 25.6 64.005 25.6 89.601 6.401l-44.803-38.4c51.213-44.803 128.005-44.803 172.799 0 44.803 38.4 51.195 102.412 12.799 147.197l-12.799 12.799-172.799 159.999c-44.785 44.803-121.618 51.195-172.799 0z" fill="#FFFFFF" p-id="6357"></path></svg>