<?xml version="1.0" standalone="no"?><!DOCTYPE svg PUBLIC "-//W3C//DTD SVG 1.1//EN" "http://www.w3.org/Graphics/SVG/1.1/DTD/svg11.dtd"><svg t="1502678482962" class="icon" style="" viewBox="0 0 1132 1024" version="1.1" xmlns="http://www.w3.org/2000/svg" p-id="6654" xmlns:xlink="http://www.w3.org/1999/xlink" width="221.09375" height="200"><defs><style type="text/css"></style></defs><path d="M755.038316 862.315789H162.196211l-161.684211 161.684211V323.368421c-5.389474-53.894737 32.336842-102.4 86.231579-107.789474H755.038316c53.894737-5.389474 102.4 32.336842 107.789473 86.231579V754.526316c5.389474 53.894737-32.336842 102.4-86.231578 107.789473H755.038316z m0-592.842105H108.301474c-26.947368-5.389474-48.505263 16.168421-53.894737 37.726316V862.315789l53.894737-53.894736h646.736842c26.947368 5.389474 48.505263-10.778947 53.894737-37.726316V323.368421c0-26.947368-16.168421-53.894737-43.11579-53.894737H755.038316z m-215.578948 215.578948h107.789474v107.789473h-107.789474V485.052632zM377.775158 485.052632h107.789474v107.789473H377.775158V485.052632zM216.090947 485.052632h107.789474v107.789473H216.090947V485.052632z" fill="#1D90E6" p-id="6655"></path></svg>