<?xml version="1.0" standalone="no"?><!DOCTYPE svg PUBLIC "-//W3C//DTD SVG 1.1//EN" "http://www.w3.org/Graphics/SVG/1.1/DTD/svg11.dtd"><svg t="1499050199480" class="icon" style="" viewBox="0 0 1024 1024" version="1.1" xmlns="http://www.w3.org/2000/svg" p-id="3382" xmlns:xlink="http://www.w3.org/1999/xlink" width="200" height="200"><defs><style type="text/css"></style></defs><path d="M512 14.473928C236.995368 14.473928 13.804965 237.664331 13.804965 512.668963S236.995368 1010.863998 512 1010.863998s498.195035-223.190403 498.195035-498.195035S787.004632 14.473928 512 14.473928z" fill="#FFFFFF" p-id="3383"></path><path d="M512 14.473928C236.995368 14.473928 13.804965 237.664331 13.804965 512.668963S236.995368 1010.863998 512 1010.863998s498.195035-223.190403 498.195035-498.195035S787.004632 14.473928 512 14.473928z m0 976.442808c-265.031001 0-478.247773-213.216772-478.247773-478.247773S246.968999 34.42119 512 34.42119s478.247773 213.216772 478.247773 478.247773-213.216772 478.247773-478.247773 478.247773z" fill="#FF1400" p-id="3384"></path><path d="M661.482836 811.634636c-81.735123 0-149.482836-67.747714-149.482836-149.482836s67.747714-149.482836 149.482836-149.482837 149.482836 67.747714 149.482837 149.482837-67.747714 149.482836-149.482837 149.482836z m0-279.018411c-71.761492 0-129.535574 57.774082-129.535574 129.535575s57.774082 129.535574 129.535574 129.535574S791.018411 733.913291 791.018411 662.1518s-57.774082-129.535574-129.535575-129.535575z m-19.947262 219.176625l29.920894-75.775271h-59.841787l89.64105-123.575721-29.920893 99.614681h59.841786l-89.64105 99.736311z m-169.430098-119.561944V692.072693h-79.667419v-59.841787h79.667419z m-179.2821-79.667419v179.40373c8.027557 17.879558 21.893337 31.866968 39.894524 39.894524h195.337213c5.959853 8.027557 11.919705 13.987409 19.947263 19.947262H332.59627c-21.893337 0-59.841786-37.82682-59.841786-59.841786V293.492339c0-21.893337 37.82682-59.841786 59.841786-59.841787H531.947262c31.866968 4.013778 55.828008 27.853189 59.841787 59.841787v235.110108c-13.987409 5.959853-25.907115 13.987409-37.826821 23.96104H292.823376z m279.01841-259.071148c-8.027557-17.879558-21.893337-31.866968-39.894524-39.894525H332.59627c-17.879558 8.027557-31.866968 21.893337-39.894524 39.894525v239.123886h279.018411V293.492339h0.121629z m-79.789048 79.667419h-119.561943v-19.947262h119.561943v19.947262z m0 59.841786h-119.561943v-19.947262h119.561943V433.001544z" fill="#FF0000" p-id="3385"></path></svg>