<?xml version="1.0" standalone="no"?><!DOCTYPE svg PUBLIC "-//W3C//DTD SVG 1.1//EN" "http://www.w3.org/Graphics/SVG/1.1/DTD/svg11.dtd"><svg t="1497514173125" class="icon" style="" viewBox="0 0 1024 1024" version="1.1" xmlns="http://www.w3.org/2000/svg" p-id="1393" xmlns:xlink="http://www.w3.org/1999/xlink" width="200" height="200"><defs><style type="text/css"></style></defs><path d="M170.666667 0h682.666666c93.866667 0 170.666667 76.8 170.666667 170.666667v682.666666c0 93.866667-76.8 170.666667-170.666667 170.666667H170.666667c-93.866667 0-170.666667-76.8-170.666667-170.666667V170.666667C0 76.8 76.8 0 170.666667 0z" fill="#666666" p-id="1394"></path><path d="M264.533333 853.333333h34.133334v-34.133333h418.133333v34.133333h34.133333V529.066667H264.533333V853.333333zM853.333333 469.333333c-93.866667 0-187.733333-25.6-281.6-51.2 68.266667-34.133333 136.533333-85.333333 187.733334-136.533333v-42.666667H384c8.533333-8.533333 17.066667-25.6 34.133333-51.2L384 170.666667c-51.2 85.333333-119.466667 153.6-196.266667 204.8l25.6 25.6c42.666667-34.133333 85.333333-68.266667 119.466667-110.933334 42.666667 51.2 85.333333 85.333333 145.066667 119.466667-93.866667 42.666667-204.8 68.266667-307.2 76.8 8.533333 17.066667 8.533333 25.6 17.066666 42.666667 110.933333-17.066667 230.4-51.2 332.8-85.333334 102.4 34.133333 204.8 59.733333 315.733334 68.266667 0-17.066667 8.533333-25.6 17.066666-42.666667z m-324.266666-76.8c-68.266667-25.6-119.466667-68.266667-162.133334-119.466666h349.866667c-59.733333 51.2-119.466667 93.866667-187.733333 119.466666z m196.266666 273.066667H529.066667V563.2h196.266666v102.4z m0 25.6v93.866667H529.066667V691.2h196.266666zM494.933333 563.2v93.866667H307.2V563.2h187.733333z m0 128v93.866667H307.2V691.2h187.733333z" fill="#FFFFFF" p-id="1395"></path></svg>