<?xml version="1.0" standalone="no"?><!DOCTYPE svg PUBLIC "-//W3C//DTD SVG 1.1//EN" "http://www.w3.org/Graphics/SVG/1.1/DTD/svg11.dtd"><svg t="1497512512832" class="icon" style="" viewBox="0 0 1024 1024" version="1.1" xmlns="http://www.w3.org/2000/svg" p-id="4826" xmlns:xlink="http://www.w3.org/1999/xlink" width="200" height="200"><defs><style type="text/css"></style></defs><path d="M512 512m-512 0a512 512 0 1 0 1024 0 512 512 0 1 0-1024 0Z" fill="#FF1500" p-id="4827"></path><path d="M512 804.571429c-160.914286 0-292.571429-131.657143-292.571429-292.571429s131.657143-292.571429 292.571429-292.571429 292.571429 131.657143 292.571429 292.571429-131.657143 292.571429-292.571429 292.571429z m0-65.828572c43.885714 0 87.771429-14.628571 117.028571-36.571428L321.828571 394.971429c-65.828571 109.714286-36.571429 248.685714 73.142858 314.514285 29.257143 21.942857 73.142857 29.257143 117.028571 29.257143z m0-453.485714c-43.885714 0-87.771429 7.314286-117.028571 36.571428l314.514285 314.514286c65.828571-109.714286 36.571429-248.685714-73.142857-314.514286-36.571429-29.257143-80.457143-36.571429-124.342857-36.571428z" fill="#FFFFFF" p-id="4828"></path></svg>