<?xml version="1.0" standalone="no"?><!DOCTYPE svg PUBLIC "-//W3C//DTD SVG 1.1//EN" "http://www.w3.org/Graphics/SVG/1.1/DTD/svg11.dtd"><svg t="1499050239667" class="icon" style="" viewBox="0 0 1024 1024" version="1.1" xmlns="http://www.w3.org/2000/svg" p-id="3854" xmlns:xlink="http://www.w3.org/1999/xlink" width="200" height="200"><defs><style type="text/css"></style></defs><path d="M512 14.473928C236.995368 14.473928 13.804965 237.664331 13.804965 512.668963S236.995368 1010.863998 512 1010.863998s498.195035-223.190403 498.195035-498.195035S787.004632 14.473928 512 14.473928z" fill="#FFFFFF" p-id="3855"></path><path d="M512 14.473928C236.995368 14.473928 13.804965 237.664331 13.804965 512.668963S236.995368 1010.863998 512 1010.863998s498.195035-223.190403 498.195035-498.195035S787.004632 14.473928 512 14.473928z m0 976.442808c-265.031001 0-478.247773-213.216772-478.247773-478.247773S246.968999 34.42119 512 34.42119s478.247773 213.216772 478.247773 478.247773-213.216772 478.247773-478.247773 478.247773z" fill="#79BE1E" p-id="3856"></path><path d="M870.68583 612.283644l-139.509206 99.614681v-79.667419c-115.548165 0-155.442689 75.77527-199.229362 119.561944 0-193.269509 199.229362-179.40373 199.229362-179.40373v-79.667419l139.509206 119.561943z m-298.844044 59.841787c51.81423-39.894524 113.602091-59.841786 179.40373-59.841787v59.841787l79.667419-59.841787-79.667419-79.667419V592.336382c-99.736311-1.946074-137.563131 21.893337-179.40373 79.789049z m-59.841786-39.894525V692.072693h-79.667419v-59.841787h79.667419z m85.748901-79.667419h-265.152631v179.40373c4.013778 19.947262 19.947262 35.880746 39.894525 39.894524h199.229362c15.933484-4.013778 29.920893-15.933484 37.82682-29.920893 5.959853 5.959853 9.973631 9.973631 15.933484 13.98741-9.973631 19.947262-29.920893 33.934672-53.760304 35.880745H372.490795c-31.866968-1.946074-57.774082-27.853189-59.841787-59.841786V293.492339c1.946074-31.866968 27.853189-57.774082 59.841787-59.841787h199.229362c31.866968 1.946074 57.774082 27.853189 59.841786 59.841787v225.136477c-13.987409 9.973631-23.961041 21.893337-33.813042 33.934671z m13.86578-259.071148c-4.013778-19.947262-19.947262-35.880746-39.894524-39.894525H372.490795c-19.947262 4.013778-35.880746 19.947262-39.894525 39.894525v239.123886h279.018411V293.492339zM531.947262 373.159758h-119.561943v-19.947262H531.947262v19.947262z m0 59.841786h-119.561943v-19.947262H531.947262V433.001544z" fill="#79BE1E" p-id="3857"></path></svg>