<?xml version="1.0" standalone="no"?><!DOCTYPE svg PUBLIC "-//W3C//DTD SVG 1.1//EN" "http://www.w3.org/Graphics/SVG/1.1/DTD/svg11.dtd"><svg t="1497514057977" class="icon" style="" viewBox="0 0 1024 1024" version="1.1" xmlns="http://www.w3.org/2000/svg" p-id="1393" xmlns:xlink="http://www.w3.org/1999/xlink" width="200" height="200"><defs><style type="text/css"></style></defs><path d="M170.666667 0h682.666666c93.866667 0 170.666667 76.8 170.666667 170.666667v682.666666c0 93.866667-76.8 170.666667-170.666667 170.666667H170.666667c-93.866667 0-170.666667-76.8-170.666667-170.666667V170.666667C0 76.8 76.8 0 170.666667 0z" fill="#2D90E6" p-id="1394"></path><path d="M204.8 341.333333H512v196.266667H230.4v42.666667H512v221.866666H170.666667v42.666667h716.8v-42.666667h-341.333334V580.266667h273.066667v-42.666667H554.666667V341.333333H853.333333v-42.666666H204.8V341.333333z m332.8-51.2l42.666667-17.066666c-17.066667-25.6-34.133333-59.733333-59.733334-110.933334l-34.133333 17.066667c17.066667 34.133333 34.133333 76.8 51.2 110.933333z" fill="#FFFFFF" p-id="1395"></path></svg>