<?xml version="1.0" standalone="no"?><!DOCTYPE svg PUBLIC "-//W3C//DTD SVG 1.1//EN" "http://www.w3.org/Graphics/SVG/1.1/DTD/svg11.dtd"><svg t="1497577156769" class="icon" style="" viewBox="0 0 1024 1024" version="1.1" xmlns="http://www.w3.org/2000/svg" p-id="3570" xmlns:xlink="http://www.w3.org/1999/xlink" width="200" height="200"><defs><style type="text/css"></style></defs><path d="M512 512m-512 0a512 512 0 1 0 1024 0 512 512 0 1 0-1024 0Z" fill="#CDCDCD" p-id="3571"></path><path d="M467.2 377.6l89.6-89.6c51.2-51.2 128-51.2 179.2 0 51.2 51.2 51.2 128 0 179.2l-89.6 89.6-44.8-44.8 89.6-89.6c25.6-25.6 25.6-64 0-89.6-25.6-25.6-64-25.6-89.6 0L512 422.4l-44.8-44.8z m89.6 268.8l-89.6 89.6c-51.2 51.2-128 51.2-179.2 0-51.2-51.2-51.2-128 0-179.2l89.6-89.6 44.8 44.8-89.6 89.6c-25.6 25.6-25.6 64 0 89.6 25.6 25.6 64 25.6 89.6 0L512 601.6l44.8 44.8z" fill="#848484" p-id="3572"></path></svg>