<?xml version="1.0" standalone="no"?><!DOCTYPE svg PUBLIC "-//W3C//DTD SVG 1.1//EN" "http://www.w3.org/Graphics/SVG/1.1/DTD/svg11.dtd"><svg t="1502678439242" class="icon" style="" viewBox="0 0 1132 1024" version="1.1" xmlns="http://www.w3.org/2000/svg" p-id="6093" xmlns:xlink="http://www.w3.org/1999/xlink" width="221.09375" height="200"><defs><style type="text/css"></style></defs><path d="M323.880421 485.052632v107.789473H216.090947V485.052632h107.789474z m161.684211 0v107.789473H377.775158V485.052632h107.789474z m161.68421 0v107.789473h-107.789474V485.052632h107.789474z m-53.894737-215.578948H108.301474c-26.947368-5.389474-48.505263 16.168421-53.894737 37.726316V862.315789l53.894737-53.894736h646.736842c26.947368 5.389474 48.505263-10.778947 53.894737-37.726316V646.736842h53.894736v107.789474c5.389474 53.894737-32.336842 102.4-86.231578 107.789473H162.196211l-161.684211 161.684211V323.368421c-5.389474-53.894737 32.336842-102.4 86.231579-107.789474H593.354105v53.894737z" fill="#6B6B6D" p-id="6094"></path><path d="M1019.122526 53.894737h-118.568421c-32.336842 0-59.284211 26.947368-59.28421 59.28421v118.568421c0 32.336842 26.947368 59.284211 59.28421 59.284211h118.568421c32.336842 0 59.284211-26.947368 59.284211-59.284211V113.178947c0-32.336842-26.947368-59.284211-59.284211-59.28421z m0 296.421052h-118.568421c-32.336842 0-59.284211 26.947368-59.28421 59.284211v118.568421c0 32.336842 26.947368 59.284211 59.28421 59.284211h118.568421c32.336842 0 59.284211-26.947368 59.284211-59.284211V409.6c0-32.336842-26.947368-59.284211-59.284211-59.284211zM722.701474 53.894737h-118.568421c-37.726316 0-64.673684 26.947368-64.673685 59.28421v414.989474c0 32.336842 26.947368 59.284211 59.284211 59.284211h118.568421c32.336842 0 59.284211-26.947368 59.284211-59.284211V113.178947c5.389474-32.336842-21.557895-59.284211-53.894737-59.28421z" fill="#2D90E6" p-id="6095"></path></svg>