<?xml version="1.0" standalone="no"?><!DOCTYPE svg PUBLIC "-//W3C//DTD SVG 1.1//EN" "http://www.w3.org/Graphics/SVG/1.1/DTD/svg11.dtd"><svg t="1497512038093" class="icon" style="" viewBox="0 0 1755 1024" version="1.1" xmlns="http://www.w3.org/2000/svg" p-id="4592" xmlns:xlink="http://www.w3.org/1999/xlink" width="342.7734375" height="200"><defs><style type="text/css"></style></defs><path d="M146.285714 0h1462.857143c80.457143 0 146.285714 65.828571 146.285714 146.285714v731.428572c0 80.457143-65.828571 146.285714-146.285714 146.285714H146.285714c-80.457143 0-146.285714-65.828571-146.285714-146.285714V146.285714C0 65.828571 65.828571 0 146.285714 0z" fill="#FF1500" p-id="4593"></path><path d="M519.314286 365.714286h-146.285715v36.571428h146.285715V438.857143c-7.314286 131.657143-73.142857 263.314286-168.228572 358.4 7.314286 7.314286 14.628571 14.628571 29.257143 21.942857C482.742857 724.114286 541.257143 585.142857 548.571429 438.857143v-14.628572-21.942857h43.885714v321.828572c-7.314286 36.571429 14.628571 65.828571 51.2 73.142857H731.428571c43.885714 7.314286 80.457143-21.942857 87.771429-65.828572 7.314286-29.257143 7.314286-58.514286 14.628571-102.4-14.628571 0-21.942857-7.314286-36.571428-14.628571 0 36.571429-7.314286 73.142857-7.314286 95.085714 0 29.257143-21.942857 51.2-51.2 51.2H680.228571c-29.257143 0-51.2-14.628571-43.885714-36.571428V402.285714h182.857143V365.714286H555.885714c0-51.2 7.314286-109.714286 7.314286-182.857143h-36.571429c0 73.142857-7.314286 131.657143-7.314285 182.857143z m-241.371429 58.514285v394.971429h36.571429V358.4c21.942857-51.2 43.885714-102.4 65.828571-160.914286l-36.571428-14.628571c-36.571429 117.028571-87.771429 219.428571-153.6 314.514286 7.314286 14.628571 14.628571 21.942857 14.628571 36.571428 29.257143-29.257143 51.2-65.828571 73.142857-109.714286z m482.742857-138.971428c-36.571429-29.257143-73.142857-58.514286-102.4-80.457143l-29.257143 29.257143c36.571429 29.257143 73.142857 51.2 102.4 80.457143l29.257143-29.257143z m424.228572 29.257143h-168.228572c14.628571-29.257143 29.257143-58.514286 43.885715-102.4l-36.571429-14.628572c-29.257143 80.457143-65.828571 153.6-117.028571 219.428572 14.628571 7.314286 21.942857 14.628571 29.257142 21.942857 21.942857-29.257143 43.885714-65.828571 58.514286-95.085714h182.857143v138.971428H877.714286v36.571429h190.171428v21.942857c7.314286 124.342857-80.457143 226.742857-197.485714 248.685714 7.314286 14.628571 14.628571 21.942857 21.942857 36.571429 131.657143-29.257143 219.428571-146.285714 212.114286-285.257143v-21.942857h146.285714V731.428571c-7.314286 36.571429 14.628571 73.142857 51.2 73.142858h109.714286c43.885714 7.314286 80.457143-21.942857 87.771428-65.828572 7.314286-29.257143 7.314286-58.514286 14.628572-87.771428-14.628571 0-21.942857-7.314286-36.571429-7.314286 0 29.257143-7.314286 58.514286-7.314285 87.771428-7.314286 29.257143-29.257143 43.885714-58.514286 43.885715h-73.142857c-21.942857 7.314286-43.885714-7.314286-43.885715-29.257143V519.314286h212.114286v-29.257143h-270.628571v-146.285714h234.057143v-29.257143h-234.057143V182.857143h-36.571429l-14.628571 131.657143z" fill="#FFFFFF" p-id="4594"></path></svg>