<?xml version="1.0" standalone="no"?><!DOCTYPE svg PUBLIC "-//W3C//DTD SVG 1.1//EN" "http://www.w3.org/Graphics/SVG/1.1/DTD/svg11.dtd"><svg t="1497511262332" class="icon" style="" viewBox="0 0 3072 1024" version="1.1" xmlns="http://www.w3.org/2000/svg" p-id="1722" xmlns:xlink="http://www.w3.org/1999/xlink" width="600" height="200"><defs><style type="text/css"></style></defs><path d="M128 0h2816c70.4 0 128 57.6 128 128v768c0 70.4-57.6 128-128 128H128c-70.4 0-128-57.6-128-128V128C0 57.6 57.6 0 128 0z" fill="#79BF1E" p-id="1723"></path><path d="M512 896l-256-192V320l256-192h128l256 192v384l-256 192H512z m320-537.6L627.2 198.4H524.8L320 358.4v313.6l204.8 153.6h102.4l204.8-153.6V358.4z m326.4 313.6c-6.4 44.8 19.2 83.2 64 89.6h307.2c25.6 0 51.2-6.4 70.4-19.2 19.2-19.2 32-38.4 32-64 6.4-19.2 6.4-44.8 12.8-64-12.8 0-19.2-6.4-32-12.8-6.4 25.6-6.4 51.2-12.8 70.4 0 38.4-32 64-70.4 57.6h-6.4H1254.4c-19.2 0-38.4 0-51.2-12.8-12.8-12.8-19.2-32-12.8-51.2V512h390.4V281.6h-435.2v32h403.2v166.4h-358.4V390.4h-32v281.6z m883.2 44.8c38.4 12.8 89.6 38.4 153.6 70.4l19.2-25.6c-25.6-12.8-70.4-32-121.6-51.2-12.8-6.4-19.2-6.4-25.6-12.8 32-32 57.6-70.4 76.8-115.2h76.8v-25.6h-230.4c6.4-12.8 19.2-25.6 32-51.2l-32-6.4c-12.8 25.6-25.6 44.8-38.4 57.6h-102.4v25.6h89.6c-19.2 25.6-32 44.8-51.2 64 19.2 6.4 51.2 19.2 83.2 32 19.2 6.4 32 12.8 38.4 19.2-57.6 32-121.6 51.2-192 57.6 6.4 12.8 12.8 19.2 19.2 32 70.4-6.4 140.8-32 204.8-70.4z m-326.4-147.2c19.2-6.4 32-6.4 38.4-12.8v166.4c6.4 12.8-6.4 32-19.2 32h-64v6.4c0 6.4 6.4 19.2 6.4 25.6h51.2c25.6 0 51.2-19.2 57.6-44.8V544c6.4 0 12.8-6.4 25.6-6.4 12.8-6.4 25.6-6.4 38.4-12.8v-32c-25.6 6.4-44.8 12.8-57.6 19.2V384h57.6v-25.6H1792V249.6h-32v108.8h-70.4V384h70.4v140.8l-76.8 19.2V576c6.4 0 12.8-6.4 32-6.4z m134.4-96h371.2V448h-128l57.6-76.8-25.6-12.8c-19.2 32-44.8 64-64 96h-211.2v19.2z m121.6 108.8H2112c-19.2 38.4-44.8 70.4-76.8 96-19.2-6.4-51.2-19.2-89.6-38.4-6.4 0-12.8-6.4-12.8-6.4 6.4-12.8 19.2-32 38.4-51.2z m64-262.4h-172.8v25.6h332.8V320h-160l25.6-12.8v-6.4c-12.8-25.6-19.2-44.8-25.6-57.6l-32 12.8c12.8 19.2 25.6 38.4 32 64z m-64 121.6l25.6-19.2c-19.2-25.6-38.4-51.2-57.6-70.4l-19.2 19.2c12.8 19.2 32 44.8 51.2 70.4z m531.2-64c-32 147.2-121.6 281.6-249.6 364.8 6.4 6.4 19.2 19.2 25.6 32 115.2-89.6 204.8-211.2 243.2-358.4l25.6 51.2c44.8 121.6 121.6 224 224 300.8 6.4-12.8 19.2-19.2 25.6-32-102.4-70.4-185.6-172.8-224-288-25.6-76.8-76.8-140.8-134.4-192l-25.6 19.2c38.4 25.6 64 64 89.6 102.4zM531.2 640L448 505.6l25.6-19.2 64 102.4L684.8 384l19.2 25.6-166.4 224-6.4 6.4z" fill="#FFFFFF" p-id="1724"></path></svg>