<?xml version="1.0" standalone="no"?><!DOCTYPE svg PUBLIC "-//W3C//DTD SVG 1.1//EN" "http://www.w3.org/Graphics/SVG/1.1/DTD/svg11.dtd"><svg t="1500548464779" class="icon" style="" viewBox="0 0 1024 1024" version="1.1" xmlns="http://www.w3.org/2000/svg" p-id="2677" xmlns:xlink="http://www.w3.org/1999/xlink" width="200" height="200"><defs><style type="text/css"></style></defs><path d="M512 512m-512 0a512 512 0 1 0 1024 0 512 512 0 1 0-1024 0Z" fill="#2D90E6" p-id="2678"></path><path d="M424.228571 716.8c0 21.942857-7.314286 43.885714-21.942857 58.514286l29.257143 43.885714c14.628571-7.314286 21.942857-21.942857 36.571429-29.257143 29.257143-21.942857 73.142857-43.885714 131.657143-80.457143-7.314286-14.628571-7.314286-29.257143-7.314286-51.2-36.571429 21.942857-73.142857 43.885714-117.028572 65.828572v-219.428572h138.971429c0 95.085714 29.257143 182.857143 73.142857 270.628572 21.942857 29.257143 51.2 51.2 87.771429 58.514285 29.257143 0 51.2-21.942857 51.2-51.2 7.314286-29.257143 7.314286-58.514286 14.628571-102.4-14.628571-7.314286-29.257143-7.314286-43.885714-14.628571 0 43.885714-7.314286 73.142857-14.628572 95.085714-7.314286 14.628571-14.628571 21.942857-21.942857 14.628572-51.2-36.571429-87.771429-124.342857-102.4-270.628572h168.228572v-51.2H658.285714c0-51.2-7.314286-102.4-7.314285-160.914285 58.514286 0 109.714286-7.314286 168.228571-14.628572l-14.628571-51.2c-124.342857 21.942857-256 29.257143-380.342858 29.257143v460.8zM212.114286 555.885714c21.942857-29.257143 43.885714-58.514286 65.828571-95.085714v373.028571h43.885714V380.342857c29.257143-51.2 51.2-109.714286 73.142858-160.914286l-51.2-14.628571c-36.571429 109.714286-87.771429 212.114286-153.6 299.885714 7.314286 21.942857 14.628571 36.571429 21.942857 51.2z m394.971428-102.4H468.114286V299.885714c43.885714 0 87.771429 0 131.657143-7.314285 0 65.828571 7.314286 124.342857 7.314285 160.914285z m7.314286 387.657143l36.571429-29.257143c-21.942857-29.257143-43.885714-51.2-73.142858-73.142857l-36.571428 29.257143c36.571429 21.942857 58.514286 43.885714 73.142857 73.142857z" fill="#FFFFFF" p-id="2679"></path></svg>