<?xml version="1.0" standalone="no"?><!DOCTYPE svg PUBLIC "-//W3C//DTD SVG 1.1//EN" "http://www.w3.org/Graphics/SVG/1.1/DTD/svg11.dtd"><svg t="1497510534939" class="icon" style="" viewBox="0 0 1024 1024" version="1.1" xmlns="http://www.w3.org/2000/svg" p-id="1488" xmlns:xlink="http://www.w3.org/1999/xlink" width="200" height="200"><defs><style type="text/css"></style></defs><path d="M512 512m-512 0a512 512 0 1 0 1024 0 512 512 0 1 0-1024 0Z" fill="#2D90E6" p-id="1489"></path><path d="M533.942857 636.342857c0-14.628571-7.314286-29.257143-7.314286-51.2 0-14.628571 7.314286-29.257143 14.628572-36.571428 7.314286-14.628571 21.942857-36.571429 43.885714-51.2 21.942857-21.942857 43.885714-43.885714 58.514286-65.828572 7.314286-14.628571 7.314286-36.571429 7.314286-51.2 0-29.257143-14.628571-58.514286-36.571429-80.457143-29.257143-21.942857-58.514286-29.257143-95.085714-29.257143-43.885714 0-80.457143 7.314286-109.714286 29.257143V365.714286c21.942857-29.257143 58.514286-43.885714 102.4-43.885715 21.942857 0 36.571429 7.314286 58.514286 14.628572 7.314286 14.628571 14.628571 36.571429 14.628571 51.2 0 14.628571 0 21.942857-7.314286 36.571428-14.628571 21.942857-29.257143 43.885714-51.2 58.514286-14.628571 14.628571-36.571429 36.571429-51.2 58.514286 0 14.628571-7.314286 29.257143-7.314285 43.885714 0 14.628571 0 36.571429 7.314285 51.2h58.514286z m-51.2 131.657143c7.314286 7.314286 21.942857 14.628571 29.257143 14.628571 7.314286 0 21.942857-7.314286 29.257143-14.628571 14.628571-14.628571 14.628571-36.571429 0-58.514286-14.628571-14.628571-43.885714-14.628571-58.514286 0-14.628571 14.628571-14.628571 43.885714 0 58.514286z" fill="#FFFFFF" p-id="1490"></path></svg>