<?xml version="1.0" standalone="no"?><!DOCTYPE svg PUBLIC "-//W3C//DTD SVG 1.1//EN" "http://www.w3.org/Graphics/SVG/1.1/DTD/svg11.dtd"><svg t="1497577095988" class="icon" style="" viewBox="0 0 1024 1024" version="1.1" xmlns="http://www.w3.org/2000/svg" p-id="3336" xmlns:xlink="http://www.w3.org/1999/xlink" width="200" height="200"><defs><style type="text/css"></style></defs><path d="M512 512m-512 0a512 512 0 1 0 1024 0 512 512 0 1 0-1024 0Z" fill="#CDCDCD" p-id="3337"></path><path d="M636.342857 292.571429L512 475.428571c-7.314286-14.628571-14.628571-29.257143-21.942857-36.571428L402.285714 292.571429H299.885714l160.914286 219.428571L292.571429 731.428571h102.4l95.085714-138.971428c7.314286-14.628571 14.628571-21.942857 21.942857-36.571429 7.314286 14.628571 14.628571 29.257143 21.942857 36.571429L629.028571 731.428571H731.428571L563.2 512 731.428571 292.571429H636.342857z" fill="#848484" p-id="3338"></path></svg>