<?xml version="1.0" standalone="no"?><!DOCTYPE svg PUBLIC "-//W3C//DTD SVG 1.1//EN" "http://www.w3.org/Graphics/SVG/1.1/DTD/svg11.dtd"><svg t="1502679451517" class="icon" style="" viewBox="0 0 1132 1024" version="1.1" xmlns="http://www.w3.org/2000/svg" p-id="7089" xmlns:xlink="http://www.w3.org/1999/xlink" width="221.09375" height="200"><defs><style type="text/css"></style></defs><path d="M323.880421 485.052632v107.789473H216.090947V485.052632h107.789474z m161.684211 0v107.789473H377.775158V485.052632h107.789474z m161.68421 0v107.789473h-107.789474V485.052632h107.789474z m-53.894737-215.578948H108.301474c-26.947368-5.389474-48.505263 16.168421-53.894737 37.726316V862.315789l53.894737-53.894736h646.736842c26.947368 5.389474 48.505263-10.778947 53.894737-37.726316V646.736842h53.894736v107.789474c5.389474 53.894737-32.336842 102.4-86.231578 107.789473H162.196211l-161.684211 161.684211V323.368421c-5.389474-53.894737 32.336842-102.4 86.231579-107.789474H593.354105v53.894737z" fill="#FFFFFF" p-id="7090"></path><path d="M1132.301474 107.789474s-199.410526-10.778947-269.473685-107.789474c-70.063158 97.010526-264.084211 107.789474-264.08421 107.789474s-48.505263 436.547368 264.08421 538.947368c296.421053-86.231579 269.473684-538.947368 269.473685-538.947368z m-269.473685 377.263158c0-140.126316-53.894737-188.631579-161.68421-215.578948 167.073684 0 161.684211-107.789474 161.68421-107.789473 0 75.452632 75.452632 107.789474 161.684211 107.789473-70.063158 0-161.684211 75.452632-161.684211 215.578948z" fill="#FFFFFF" p-id="7091"></path></svg>