<?xml version="1.0" standalone="no"?><!DOCTYPE svg PUBLIC "-//W3C//DTD SVG 1.1//EN" "http://www.w3.org/Graphics/SVG/1.1/DTD/svg11.dtd"><svg t="1498701329257" class="icon" style="" viewBox="0 0 3072 1024" version="1.1" xmlns="http://www.w3.org/2000/svg" p-id="1785" xmlns:xlink="http://www.w3.org/1999/xlink" width="600" height="200"><defs><style type="text/css"></style></defs><path d="M128 0h2816c70.4 0 128 57.6 128 128v768c0 70.4-57.6 128-128 128H128c-70.4 0-128-57.6-128-128V128C0 57.6 57.6 0 128 0z" fill="#FF0000" p-id="1786"></path><path d="M2720 614.4v-25.6h-172.8v211.2H2496V588.8h-172.8v32h-44.8v-256H2496v-128h51.2v121.6h217.6v256h-44.8z m-217.6-211.2h-172.8v140.8h172.8V403.2z m217.6 0h-172.8v140.8h172.8V403.2z m-550.4 371.2h-32c-32 0-51.2-19.2-57.6-51.2V320h-121.6v185.6c0 134.4-32 230.4-102.4 294.4-12.8-12.8-19.2-25.6-32-38.4 64-64 96-153.6 89.6-243.2V275.2h211.2v422.4c0 19.2 6.4 25.6 19.2 25.6h12.8c12.8 0 19.2-12.8 25.6-32 6.4-32 6.4-57.6 6.4-96 12.8 6.4 25.6 12.8 44.8 19.2-6.4 38.4-6.4 70.4-12.8 89.6 6.4 38.4-19.2 64-51.2 70.4z m-345.6-313.6c32 25.6 51.2 44.8 70.4 64l-32 32c-25.6-25.6-44.8-44.8-57.6-64v294.4h-38.4V486.4c-12.8 57.6-38.4 108.8-76.8 153.6-6.4-19.2-12.8-32-19.2-51.2 38.4-64 70.4-128 89.6-204.8h-83.2v-32h89.6V243.2h38.4v108.8h76.8v38.4h-76.8v96l19.2-25.6z m-563.2 102.4h332.8v224h-44.8v-32h-313.6v32h-44.8V620.8c-25.6 19.2-44.8 38.4-70.4 57.6-12.8-12.8-19.2-25.6-32-38.4 70.4-44.8 134.4-96 185.6-166.4h-172.8v-38.4h531.2v44.8h-307.2c-12.8 25.6-38.4 57.6-64 83.2z m-19.2 153.6h313.6V601.6h-313.6v115.2z m339.2-364.8h-409.6v64h-44.8V307.2h243.2c-12.8-19.2-25.6-32-38.4-51.2l38.4-19.2c12.8 12.8 25.6 32 44.8 51.2l-32 19.2h243.2v108.8h-44.8v-64zM262.4 716.8V326.4l332.8-192 332.8 192v390.4l-332.8 192-332.8-192z m51.2-358.4v326.4l140.8 76.8L640 512H512l192-256-108.8-64-281.6 166.4z m563.2 326.4V358.4L704 256l-64 192 128 64-313.6 249.6 140.8 83.2 281.6-160z" fill="#FFFFFF" p-id="1787"></path></svg>