<svg id="帮助" xmlns="http://www.w3.org/2000/svg" width="34" height="21.563" viewBox="0 0 34 21.563">
  <metadata><?xpacket begin="﻿" id="W5M0MpCehiHzreSzNTczkc9d"?>
<x:xmpmeta xmlns:x="adobe:ns:meta/" x:xmptk="Adobe XMP Core 5.6-c138 79.159824, 2016/09/14-01:09:01        ">
   <rdf:RDF xmlns:rdf="http://www.w3.org/1999/02/22-rdf-syntax-ns#">
      <rdf:Description rdf:about=""/>
   </rdf:RDF>
</x:xmpmeta>
                                                                                                    
                                                                                                    
                                                                                                    
                                                                                                    
                                                                                                    
                                                                                                    
                                                                                                    
                                                                                                    
                                                                                                    
                                                                                                    
                                                                                                    
                                                                                                    
                                                                                                    
                                                                                                    
                                                                                                    
                                                                                                    
                                                                                                    
                                                                                                    
                                                                                                    
                                                                                                    
                           
<?xpacket end="w"?></metadata>
<defs>
    <style>
      .cls-1 {
        fill: #d1d1d1;
      }

      .cls-1, .cls-3 {
        fill-rule: evenodd;
      }

      .cls-2 {
        fill: #1980e3;
      }

      .cls-3 {
        fill: #fff;
      }
    </style>
  </defs>
  <path class="cls-1" d="M1056.99,14.439V33.574A39.184,39.184,0,0,1,1070,36V17S1066.9,14.389,1056.99,14.439ZM1073,27a9.961,9.961,0,0,0,3.31,7.421A42.456,42.456,0,0,0,1071,36V17s2.04-2.611,11.95-2.562V17A10,10,0,0,0,1073,27Z" transform="translate(-1057 -14.438)"/>
  <circle id="椭圆_1_copy" data-name="椭圆 1 copy" class="cls-2" cx="26" cy="12.563" r="8"/>
  <path id="_" data-name="?" class="cls-3" d="M1083.01,28.736q-0.045-.141-0.09-0.344a1.616,1.616,0,0,1-.05-0.454,1.15,1.15,0,0,1,.04-0.336,0.9,0.9,0,0,1,.16-0.3,3.5,3.5,0,0,1,.31-0.339c0.14-.125.31-0.279,0.52-0.459,0.14-.117.27-0.239,0.4-0.366a2.854,2.854,0,0,0,.35-0.407,1.993,1.993,0,0,0,.25-0.472,1.685,1.685,0,0,0,.09-0.562,1.553,1.553,0,0,0-.16-0.725,1.532,1.532,0,0,0-.43-0.537,1.889,1.889,0,0,0-.66-0.334,2.81,2.81,0,0,0-.82-0.115,3.544,3.544,0,0,0-1.04.143,3.1,3.1,0,0,0-.89.434v0.577a3.485,3.485,0,0,1,.89-0.485,2.925,2.925,0,0,1,1.03-.178,2.12,2.12,0,0,1,.62.085,1.348,1.348,0,0,1,.47.251,1.141,1.141,0,0,1,.31.4,1.153,1.153,0,0,1,.11.532,1.384,1.384,0,0,1-.09.507,1.7,1.7,0,0,1-.23.427,1.983,1.983,0,0,1-.33.366c-0.12.114-.25,0.223-0.37,0.326q-0.225.181-.42,0.354a2.765,2.765,0,0,0-.32.359,1.577,1.577,0,0,0-.21.394,1.349,1.349,0,0,0-.07.459,2.164,2.164,0,0,0,.04.439,1.286,1.286,0,0,0,.11.354h0.48Zm0.08,2.128a0.412,0.412,0,0,0,.14-0.311,0.4,0.4,0,0,0-.14-0.311,0.53,0.53,0,0,0-.35-0.12,0.486,0.486,0,0,0-.34.12,0.394,0.394,0,0,0-.13.311,0.4,0.4,0,0,0,.13.311,0.475,0.475,0,0,0,.34.126A0.517,0.517,0,0,0,1083.09,30.865Z" transform="translate(-1057 -14.438)"/>
</svg>
