<?xml version="1.0" encoding="utf-8"?>
<!-- Generator: Adobe Illustrator 21.0.0, SVG Export Plug-In . SVG Version: 6.00 Build 0)  -->
<svg version="1.1" id="Layer_1" xmlns="http://www.w3.org/2000/svg" xmlns:xlink="http://www.w3.org/1999/xlink" x="0px" y="0px"
	 viewBox="0 0 166 49" style="enable-background:new 0 0 166 49;" xml:space="preserve">
<style type="text/css">
	.st0{fill:#FFFFFF;}
</style>
<polygon class="st0" points="61.4,14.1 53.4,24 52,32.4 57.4,32.4 58.9,24.1 67.4,14.2 61.4,14.2 "/>
<path class="st0" d="M80.7,14.1l-2,11.2c-0.2,0.9-0.6,1.7-1.2,2.2c-0.5,0.4-1,0.6-1.7,0.7l-0.7,4c1.4,0,2.6-0.2,3.7-0.6
	c0.8-0.3,1.6-0.7,2.4-1.4c0.8-0.7,1.4-1.5,1.9-2.4s0.8-1.9,1-2.9l2-11h-5.4V14.1z"/>
<path class="st0" d="M74.7,14.1h-5.4l-2,11c-0.2,0.8-0.2,1.8,0,2.9c0.1,0.7,0.3,1.3,0.8,2c0.4,0.6,1,1.1,1.6,1.5
	c0.6,0.3,1.4,0.6,2.4,0.7c0.6,0.1,1.1,0.1,1.7,0.1l0.7-4c-0.6-0.1-1.1-0.3-1.4-0.7c-0.4-0.5-0.6-1.3-0.4-2.2L74.7,14.1z"/>
<path class="st0" d="M134,14.1h-5.4l-2,11c-0.1,0.8-0.2,1.8,0,2.9c0.1,0.7,0.3,1.3,0.8,2c0.4,0.6,1,1.1,1.6,1.5
	c0.6,0.3,1.4,0.6,2.4,0.7c0.6,0.1,1.1,0.1,1.7,0.1l0.7-4c-0.6-0.1-1.1-0.3-1.4-0.7c-0.4-0.5-0.6-1.3-0.4-2.2L134,14.1z"/>
<path class="st0" d="M139.9,14.1l-2,11.2c-0.2,0.9-0.6,1.7-1.2,2.2c-0.5,0.4-1,0.6-1.7,0.7l-0.7,4c1.4,0,2.6-0.2,3.7-0.6
	c0.8-0.3,1.6-0.7,2.4-1.4c0.8-0.7,1.4-1.5,1.9-2.4s0.8-1.9,1-2.9l2-11h-5.4V14.1z"/>
<polygon class="st0" points="94.1,14.3 89.1,14.3 85.9,32.2 90.9,32.2 92.7,22.4 94.1,14.3 "/>
<polygon class="st0" points="98.9,24.1 95.1,16.2 93.7,24.2 97.5,32.1 102.6,32.1 105.8,14.2 100.7,14.2 "/>
<polygon class="st0" points="153.4,14.3 148.4,14.3 145.2,32.2 150.2,32.2 152,22.4 153.4,14.3 "/>
<polygon class="st0" points="158.2,24.1 154.4,16.2 153,24.2 156.8,32.1 161.9,32.1 165.1,14.2 160,14.2 "/>
<path class="st0" d="M122.9,16.7c-0.5-0.8-1.2-1.4-2.1-1.8c-0.9-0.4-2.1-0.6-3.7-0.6h-8l-0.7,3.9h10l-0.2,6.9l-4.5,3.6l-3.2-3.6
	l1.9-5.7H108l-2,12.8h8c1,0,2-0.2,3.3-0.5c0.9-0.2,1.8-0.7,2.7-1.4c0.9-0.7,1.6-1.5,2.2-2.5s1.1-2.8,1.5-4.6
	c0.2-1.2,0.3-2.7,0.2-3.7C123.7,18.4,123.4,17.5,122.9,16.7z"/>
<polygon class="st0" points="56.5,18.6 54.6,14.1 48.7,14.1 53,23 "/>
<path class="st0" d="M41.6,5.5V1H2.3v15.2C12.5,9.4,24.8,5.4,38,5.4C39.2,5.4,40.4,5.4,41.6,5.5z"/>
<path class="st0" d="M30.3,19l0.9,11l-9.3,7.2L15.3,30l0,0l0,0c5.2-9.1,14.1-16,24.7-18.5V8.4l0,0c-0.7,0-1.3,0-2,0
	C24.1,8.4,11.3,13,1,20.7c0,0.1,0,0.1,0,0.1h6.7L2.3,32.7l9.1,7.1L21.9,48l19.6-15.3L39,15.1C35.9,16,33,17.3,30.3,19z"/>
</svg>
