<?xml version="1.0" encoding="utf-8"?>
<!-- Generator: Adobe Illustrator 21.0.0, SVG Export Plug-In . SVG Version: 6.00 Build 0)  -->
<svg version="1.1" id="Layer_1" xmlns="http://www.w3.org/2000/svg" xmlns:xlink="http://www.w3.org/1999/xlink" x="0px" y="0px"
	 viewBox="0 0 253.6 34.8" style="enable-background:new 0 0 253.6 34.8;" xml:space="preserve">
<style type="text/css">
	.st0{fill:#FFFFFF;}
</style>
<path id="logo" class="st0" d="M133.9,23.8h0.8v-0.7h8.1v0.7h0.8v-6.7h-9.7L133.9,23.8L133.9,23.8z M139.8,15.8h5.4v-5.5h-5.4V15.8z
	 M138.8,16c-0.9-0.6-1.9-1.3-3.1-2.1c0,0,0-0.1,0-0.1h3.1V13h-3c0.1-0.6,0.2-1.3,0.2-1.9h2.3v-0.7h-4.7c0.2-0.4,0.5-0.9,0.6-1.3
	l-0.7-0.2c-0.4,1.2-1.1,2.2-2,3.1c0.2,0.2,0.4,0.3,0.5,0.5c0.4-0.4,0.8-0.9,1.1-1.4h2c0,0.6-0.1,1.3-0.2,1.9h-3.5v0.7h3.3
	c-0.4,1.2-1.5,2.2-3.4,2.9c0.2,0.2,0.3,0.5,0.5,0.7c1.5-0.5,2.7-1.6,3.5-2.9c0.7,0.5,1.7,1.2,2.8,2.2L138.8,16z M144.4,11v4.1h-3.8
	V11L144.4,11L144.4,11z M142.9,17.9v1.9h-8.1v-1.9H142.9z M142.9,20.5v1.9h-8.1v-1.9L142.9,20.5L142.9,20.5z M148.3,16.3h10.3v1.2
	h-9.8v0.6h9.8v1.2h-10.3v0.6h11.1v-4.2h-11.1L148.3,16.3L148.3,16.3z M147.9,12.6h2.7v1.2h-3.4v0.6h3.4v0.9h0.8v-0.9h2.4v-0.6h-2.4
	v-1.2h2.2V12h-2.2v-1.2h2.3v-0.6h-2.3V9.1h-0.8v1.1h-3.1v0.6h3.1V12h-2.7L147.9,12.6L147.9,12.6z M154.6,12.6h2.2v1.2h-2.4v0.6h2.4
	v0.9h0.8v-0.9h3.3v-0.6h-3.3v-1.2h2.7V12h-2.7v-1.2h3.1v-0.6h-3.1V9.1h-0.8v1.1h-2.4v0.6h2.4V12h-2.2V12.6L154.6,12.6z M150.8,22.1
	c-0.2,0.7,0.2,1.3,0.9,1.5c0.2,0,0.3,0,0.5,0h3.8c1.1,0,1.8-0.4,2-1.2c0.1-0.3,0.1-0.7,0.2-1c-0.2-0.1-0.5-0.1-0.8-0.2
	c0,0,0,0.1,0,0.1c0,0.3-0.1,0.6-0.2,0.8c-0.2,0.6-0.8,0.9-1.4,0.8h-3.3c-0.3,0-0.5,0-0.8-0.2c-0.2-0.2-0.2-0.5-0.2-0.7v-1.3h-0.8
	V22.1z M147,22.9c0.2,0.2,0.5,0.3,0.7,0.5c0.6-0.8,1.3-1.6,1.8-2.4l-0.7-0.4C148.3,21.4,147.7,22.2,147,22.9L147,22.9L147,22.9z
	 M160.6,23.3l0.7-0.5c-0.5-0.7-1.1-1.4-1.8-2.3l-0.6,0.4C159.6,21.8,160.2,22.6,160.6,23.3L160.6,23.3L160.6,23.3z M154.8,22.1
	l0.6-0.5c-0.7-0.8-1.3-1.3-1.6-1.6l-0.6,0.4C153.8,21,154.3,21.5,154.8,22.1L154.8,22.1L154.8,22.1z M175.9,22.8
	c-1.6-2-2.9-3.8-4.1-5.2L171,18c0.8,1,1.6,2,2.4,3.1c-2.6,0.1-5.5,0.2-8.6,0.3c1.5-1.7,2.9-3.5,4.3-5.4l-0.7-0.3h8.3v-0.8h-14.3v0.8
	h5.7c-1,1.6-2.1,3.2-3.4,4.6c-0.4,0.5-0.8,0.8-1.4,1.2l0.5,1c0.4-0.1,0.9-0.2,1.3-0.2c3.1-0.2,6.1-0.3,8.9-0.4
	c0.2,0.2,0.4,0.5,0.7,1c0.1,0.2,0.2,0.3,0.3,0.4L175.9,22.8z M163.8,11h11.6v-0.8h-11.6V11z M185.4,21.2c1.2,0.6,3,1.4,5.2,2.5
	l0.5-0.8c-1.1-0.5-2.8-1.3-4.9-2.3c1.3-1.1,2.3-2.6,2.9-4.2h3.1v-0.8h-9c0.3-0.6,0.8-1.4,1.3-2.4l-0.8-0.3c-0.5,0.9-0.9,1.9-1.4,2.8
	h-4.6v0.8h4.1c-0.4,0.7-0.9,1.5-1.5,2.4c0.8,0.4,1.7,0.8,3,1.4c0.6,0.3,1,0.5,1.3,0.6c-1.9,1.1-4,1.9-6.3,2.2
	c0.2,0.3,0.3,0.6,0.4,0.9C181,23.4,183.3,22.5,185.4,21.2L185.4,21.2L185.4,21.2z M182.6,16.4h5.5c-0.6,1.5-1.6,2.8-2.8,3.8
	c-0.7-0.3-1.6-0.7-2.9-1.3c-0.5-0.2-0.8-0.3-1-0.4C181.9,17.7,182.3,17,182.6,16.4L182.6,16.4L182.6,16.4z M185.2,11.3h-6.7v2.6h0.8
	v-1.8h11.2v1.8h0.8v-2.6h-6l0.7-0.4c-0.5-0.7-0.9-1.4-1.2-1.9L184,9.4C184.4,10,184.8,10.6,185.2,11.3L185.2,11.3L185.2,11.3z
	 M195.5,15.7h4.4v2.8h-4.9v0.8h4.9v3h-6.2V23h13.3v-0.8h-6.2v-3h4.9v-0.8h-4.9v-2.8h4.3v-0.8h-9.5L195.5,15.7L195.5,15.7z
	 M207.5,14.6c-2.6-1.1-5-2.9-6.7-5.1c0.1-0.1,0.1-0.2,0.2-0.3c0-0.1,0.1-0.1,0.1-0.1l-0.9-0.2c-1.9,2.5-4.4,4.5-7.2,5.9
	c0.2,0.2,0.4,0.5,0.6,0.7c2.6-1.3,4.9-3.2,6.8-5.4c1.7,2.3,4,4.1,6.7,5.3C207.1,15.1,207.3,14.8,207.5,14.6L207.5,14.6L207.5,14.6z
	 M215,23.8h0.8v-7.6h1c0.3,1.6,1,3.2,2,4.5c-0.8,0.8-1.7,1.6-2.7,2.2c0.2,0.2,0.4,0.4,0.6,0.7c1-0.6,1.9-1.4,2.7-2.2
	c0.9,0.9,2,1.7,3.2,2.3c0.1-0.3,0.3-0.5,0.5-0.8c-1.2-0.5-2.2-1.3-3.2-2.2c1-1.3,1.8-2.9,2.2-4.5v-0.8h-6.3v-4.7h5.3
	c0,0.4,0,0.8-0.1,1.4c0,0.3-0.1,0.7-0.4,0.9c-0.4,0.2-0.8,0.3-1.2,0.2h-0.6c-0.2,0-0.3,0-0.4,0c-0.3,0-0.5,0-0.8,0
	c0.1,0.3,0.1,0.5,0.1,0.8h1.1l0.7,0c1.4,0.1,2.1-0.6,2.2-1.9c0.1-0.7,0.1-1.4,0.1-2.1h-6.8L215,23.8L215,23.8z M209.4,17.8
	c0,1.1,0,2.2-0.2,3.2c-0.1,0.8-0.4,1.5-0.8,2.1c0.2,0.2,0.4,0.3,0.6,0.5c0.9-1.6,1.3-3.5,1.2-5.4h2.4V22c0.1,0.4-0.2,0.7-0.5,0.8
	c-0.1,0-0.2,0-0.3,0c-0.5,0-0.8,0-1.1,0c0.1,0.3,0.1,0.5,0.1,0.8h0.7c0.2,0,0.4,0,0.5,0c0.7,0.1,1.3-0.4,1.4-1.1c0-0.1,0-0.3,0-0.4
	V9.9h-4L209.4,17.8L209.4,17.8z M219.2,20.1c-0.8-1.2-1.4-2.5-1.8-3.9h3.7C220.8,17.6,220.1,18.9,219.2,20.1L219.2,20.1L219.2,20.1z
	 M212.6,14.5v3.1h-2.4v-3.1L212.6,14.5L212.6,14.5z M212.6,10.6v3.1h-2.4v-3.1L212.6,10.6L212.6,10.6z M238.2,15.8
	c-2.1-0.1-4.2-0.5-6.2-1.3c1.6-0.9,3-1.9,4.2-3.2v-0.8h-7.9c0,0,0.1-0.1,0.2-0.2c0.3-0.4,0.6-0.7,0.7-1l-0.8-0.3
	c-1.2,1.8-2.7,3.3-4.4,4.6c0.2,0.2,0.4,0.4,0.6,0.6c0.9-0.8,1.8-1.6,2.6-2.4c0.8,1.1,1.8,2,3,2.7c-2.1,0.8-4.3,1.3-6.6,1.6
	c0.2,0.3,0.3,0.5,0.5,0.8c2.4-0.3,4.7-1,7-1.9c2.1,0.9,4.4,1.5,6.7,1.7C237.9,16.3,238,16.1,238.2,15.8L238.2,15.8L238.2,15.8z
	 M224.9,18.6h4.1c-0.2,2-1.9,3.6-5.1,4.6c0.2,0.2,0.4,0.5,0.6,0.7c3.3-1.1,5.1-2.9,5.4-5.3h5.4c0,0.7-0.1,1.4-0.1,2.1
	c0,0.6-0.2,1.1-0.5,1.6c-0.4,0.3-0.9,0.5-1.4,0.4c-0.1,0-0.3,0-0.4,0c-0.8,0-1.5,0-1.8-0.1c0.1,0.3,0.1,0.6,0.1,0.9
	c0.9,0,1.7,0,2.2,0c0.7,0.1,1.5-0.2,2-0.6c0.5-0.6,0.7-1.4,0.7-2.1c0.1-1.1,0.2-2.1,0.2-2.9H230c0.1-0.6,0.1-1.2,0.2-1.6h-0.8
	c0,0.6-0.1,1.1-0.1,1.6h-4.3L224.9,18.6L224.9,18.6z M231.1,14.1c-1.3-0.7-2.4-1.7-3.4-2.9h7.4C234,12.3,232.6,13.3,231.1,14.1
	L231.1,14.1L231.1,14.1z M244,13.9h-3.7v9.9h0.8v-9.2h10.5v7c0,0.3,0,0.6-0.2,0.8c-0.2,0.2-0.5,0.3-0.8,0.2c-0.4,0-0.6,0-0.9,0
	c-0.2,0-0.5,0-0.9,0c0.1,0.3,0.2,0.6,0.2,0.9h1l0.8,0c0.8,0.1,1.5-0.4,1.7-1.1c0-0.2,0-0.3,0-0.5v-7.9h-3.8c0.5-0.7,1-1.3,1.4-1.9
	l-0.8-0.4c-0.5,0.8-1,1.6-1.5,2.3L244,13.9l0.8-0.4c-0.4-0.5-0.8-1.2-1.4-1.9l-0.7,0.4C243.2,12.6,243.6,13.3,244,13.9L244,13.9
	L244,13.9z M249.2,17.6h-5.7v4h5.7C249.2,21.5,249.2,17.6,249.2,17.6z M246.2,10.8h-7v0.7h14.4v-0.7h-6.5c-0.2-0.6-0.4-1.2-0.6-1.8
	l-0.8,0.3C245.8,9.7,246,10.2,246.2,10.8C246.2,10.8,246.2,10.8,246.2,10.8z M248.4,18.3v2.5h-4.2v-2.5H248.4L248.4,18.3z
	 M241.6,17.4c0.2,0.2,0.4,0.4,0.5,0.6c1-0.7,2.1-1.5,3.3-2.4l-0.6-0.6C243.8,16,242.7,16.7,241.6,17.4L241.6,17.4L241.6,17.4z
	 M250.6,17.9l0.5-0.6c-1.2-0.8-2.3-1.6-3.3-2.2l-0.5,0.6C248.5,16.4,249.6,17.2,250.6,17.9L250.6,17.9L250.6,17.9z M44.7,9.7
	l-5.9,7.4l-1.1,6.2h4l1.1-6.2l6.3-7.4C49.1,9.7,44.7,9.7,44.7,9.7z M59,9.7L57.5,18c-0.1,0.6-0.4,1.2-0.9,1.6
	c-0.4,0.3-0.8,0.5-1.3,0.5l-0.5,3c0.9,0,1.8-0.1,2.7-0.4c0.7-0.2,1.3-0.6,1.8-1c0.6-0.5,1.1-1.1,1.4-1.7c0.4-0.7,0.6-1.4,0.7-2.1
	l1.5-8.1L59,9.7L59,9.7z M54.4,20.2c-0.4,0-0.8-0.2-1.1-0.5c-0.3-0.5-0.4-1.1-0.3-1.6l1.5-8.3h-4l-1.5,8.1c-0.1,0.7-0.1,1.4,0,2.1
	c0.1,0.5,0.3,1,0.6,1.5c0.3,0.4,0.7,0.8,1.2,1.1c0.5,0.3,1.1,0.5,1.8,0.5c0.4,0.1,0.9,0.1,1.2,0.1L54.4,20.2z M98.3,20.2
	c-0.4,0-0.8-0.2-1.1-0.5c-0.3-0.5-0.4-1.1-0.3-1.6l1.5-8.3h-4L93,17.8c-0.1,0.7-0.1,1.4,0,2.1c0.1,0.5,0.3,1,0.6,1.5
	c0.3,0.4,0.7,0.8,1.2,1.1c0.5,0.3,1.1,0.5,1.8,0.5c0.4,0.1,0.9,0.1,1.2,0.1L98.3,20.2z M102.8,9.7l-1.5,8.3
	c-0.1,0.6-0.4,1.2-0.9,1.6c-0.4,0.3-0.8,0.5-1.3,0.5l-0.5,3c0.9,0,1.8-0.1,2.7-0.4c0.7-0.2,1.3-0.6,1.8-1c0.6-0.5,1.1-1.1,1.4-1.7
	c0.4-0.7,0.6-1.4,0.7-2.1l1.5-8.1C106.8,9.7,102.8,9.7,102.8,9.7z M67.9,15.8l1.1-6l0,0h-3.7l-2.4,13.2h3.7L67.9,15.8z M73.8,9.8
	l-1.3,7.3l-2.8-5.9l-1.1,6l2.8,5.9h3.7l2.4-13.2L73.8,9.8L73.8,9.8z M111.7,15.8l1.1-6l0,0h-3.7l-2.4,13.2h3.7L111.7,15.8z
	 M117.6,9.8l-1.3,7.3l-2.8-5.9l-1.1,6l2.8,5.9h3.7l2.4-13.2L117.6,9.8L117.6,9.8z M90.9,13.7c-0.1-0.7-0.3-1.4-0.7-2
	c-0.4-0.6-0.9-1-1.5-1.3C87.8,10,86.9,9.8,86,9.8h-5.9l-0.5,2.9H87l-0.1,5.1l-3.3,2.7l-2.3-2.7l1.4-4.2h-3.3l-1.7,9.5h5.9
	c0.8,0,1.6-0.1,2.4-0.3c0.7-0.2,1.4-0.5,2-1c0.7-0.5,1.2-1.2,1.6-1.9c0.5-1.1,0.9-2.2,1.1-3.4C90.9,15.5,90.9,14.6,90.9,13.7
	L90.9,13.7z M41.1,13l-1.4-3.3h-4.4l3.2,6.6L41.1,13z M27.4,3.3c0.9,0,1.8,0,2.6,0.1V0H1v11.2C8.8,6,18,3.3,27.4,3.3L27.4,3.3z
	 M21.7,13.3l0.7,8.1l-6.8,5.3l-4.9-5.3l0,0l0,0c3.9-6.9,10.5-11.9,18.2-13.7V5.5l0,0c-0.5,0-1,0-1.5,0C17.5,5.4,7.9,8.6,0,14.6
	l0,0.1l5,0l-4,8.8l6.8,5.3l7.8,6.1L30,23.5l-1.9-13.1C25.9,11.1,23.7,12.1,21.7,13.3z"/>
</svg>
