<?xml version="1.0" encoding="utf-8"?>
<!-- Generator: Adobe Illustrator 21.0.0, SVG Export Plug-In . SVG Version: 6.00 Build 0)  -->
<svg version="1.1" id="Layer_1" xmlns="http://www.w3.org/2000/svg" xmlns:xlink="http://www.w3.org/1999/xlink" x="0px" y="0px"
	 viewBox="0 0 96 27" style="enable-background:new 0 0 96 27;" xml:space="preserve">
<style type="text/css">
	.st0{fill:#878787;}
</style>
<path id="logo_copy" class="st0" d="M35.4,7.5l-4.7,5.7L29.8,18H33l0.9-4.8l5-5.7H35.4L35.4,7.5z M46.6,7.5L45.4,14
	c-0.1,0.5-0.3,0.9-0.7,1.3c-0.3,0.2-0.6,0.4-1,0.4L43.3,18c0.7,0,1.5-0.1,2.1-0.3c0.5-0.2,1-0.5,1.4-0.8c0.5-0.4,0.8-0.8,1.1-1.4
	c0.3-0.5,0.5-1.1,0.6-1.6l1.2-6.3H46.6z M43,15.7c-0.3,0-0.6-0.2-0.8-0.4c-0.3-0.4-0.4-0.8-0.2-1.2l1.2-6.5H40l-1.2,6.3
	c-0.1,0.5-0.1,1.1,0,1.7c0.1,0.4,0.2,0.8,0.5,1.1c0.2,0.3,0.6,0.6,0.9,0.9c0.4,0.2,0.9,0.4,1.4,0.4c0.3,0,0.7,0.1,1,0.1L43,15.7z
	 M77.7,15.7c-0.3,0-0.6-0.2-0.8-0.4c-0.3-0.4-0.4-0.8-0.2-1.2l1.2-6.5h-3.1l-1.2,6.3c-0.1,0.5-0.1,1.1,0,1.7
	c0.1,0.4,0.2,0.8,0.5,1.1c0.2,0.3,0.6,0.6,0.9,0.9c0.4,0.2,0.9,0.4,1.4,0.4c0.3,0,0.7,0.1,1,0.1L77.7,15.7z M81.3,7.5L80.1,14
	c-0.1,0.5-0.3,0.9-0.7,1.3c-0.3,0.2-0.6,0.4-1,0.4L78,18c0.7,0,1.5-0.1,2.1-0.3c0.5-0.2,1-0.5,1.4-0.8c0.5-0.4,0.8-0.8,1.1-1.4
	c0.3-0.5,0.5-1.1,0.6-1.6l1.2-6.3H81.3L81.3,7.5z M53.7,12.3l0.8-4.6l0,0h-2.9l-1.9,10.3h3L53.7,12.3z M58.3,7.6l-1,5.7l-2.3-4.6
	l-0.8,4.6l2.3,4.5h3l1.9-10.3H58.3z M88.4,12.3l0.8-4.6l0,0h-2.9l-1.9,10.3h3L88.4,12.3z M93,7.6l-1,5.7l-2.3-4.6l-0.8,4.6l2.3,4.5
	h3L96,7.6L93,7.6L93,7.6z M71.9,10.6c0-0.6-0.2-1.1-0.5-1.6c-0.3-0.5-0.7-0.8-1.2-1c-0.7-0.3-1.4-0.4-2.2-0.4h-4.7l-0.4,2.2h5.9
	l-0.1,4l-2.6,2.1l-1.8-2.1l1.1-3.3h-2.6l-1.3,7.4h4.7c0.6,0,1.3-0.1,1.9-0.3c0.6-0.1,1.1-0.4,1.6-0.8c0.5-0.4,1-0.9,1.3-1.5
	C71.6,13.9,72,12.3,71.9,10.6L71.9,10.6z M32.5,10.1l-1.1-2.6h-3.5l2.5,5.1L32.5,10.1z M21.7,2.5c0.7,0,1.4,0,2.1,0.1V0h-23v8.7
	C7,4.7,14.2,2.5,21.7,2.5L21.7,2.5z M17.2,10.3l0.5,6.3l-5.4,4.1l-3.9-4.1l0,0c0,0,0,0,0,0c3.1-5.4,8.4-9.2,14.4-10.6V4.2
	c0,0,0,0,0,0c-0.4,0-0.8,0-1.2,0C13.9,4.2,6.3,6.7,0,11.3c0,0,0,0,0,0l3.9,0l-3.2,6.8l5.3,4.1l6.2,4.7l11.5-8.8L22.2,8.1
	C20.5,8.6,18.7,9.4,17.2,10.3L17.2,10.3z"/>
</svg>
